<?xml version="1.0" encoding="UTF-8" standalone="no"?>
<svg
   xmlns:dc="http://purl.org/dc/elements/1.1/"
   xmlns:cc="http://creativecommons.org/ns#"
   xmlns:rdf="http://www.w3.org/1999/02/22-rdf-syntax-ns#"
   xmlns:svg="http://www.w3.org/2000/svg"
   xmlns="http://www.w3.org/2000/svg"
   xmlns:sodipodi="http://sodipodi.sourceforge.net/DTD/sodipodi-0.dtd"
   xmlns:inkscape="http://www.inkscape.org/namespaces/inkscape"
   width="210mm"
   height="297mm"
   viewBox="0 0 210 297"
   version="1.1"
   id="svg8"
   inkscape:version="1.0.2 (e86c8708, 2021-01-15)"
   sodipodi:docname="bird2.svg">
  <defs
     id="defs2" />
  <sodipodi:namedview
     id="base"
     pagecolor="#ffffff"
     bordercolor="#666666"
     borderopacity="1.0"
     inkscape:pageopacity="0.0"
     inkscape:pageshadow="2"
     inkscape:zoom="0.35"
     inkscape:cx="19.253997"
     inkscape:cy="856.3988"
     inkscape:document-units="mm"
     inkscape:current-layer="layer1"
     inkscape:document-rotation="0"
     showgrid="false"
     inkscape:window-width="1920"
     inkscape:window-height="1080"
     inkscape:window-x="0"
     inkscape:window-y="0"
     inkscape:window-maximized="0" />
  <metadata
     id="metadata5">
    <rdf:RDF>
      <cc:Work
         rdf:about="">
        <dc:format>image/svg+xml</dc:format>
        <dc:type
           rdf:resource="http://purl.org/dc/dcmitype/StillImage" />
        <dc:title></dc:title>
      </cc:Work>
    </rdf:RDF>
  </metadata>
  <g
     inkscape:label="Layer 1"
     inkscape:groupmode="layer"
     id="layer1">
    <path
       style="fill:none;stroke:#000000;stroke-width:0.264583px;stroke-linecap:butt;stroke-linejoin:miter;stroke-opacity:1"
       d="m 48.002976,168.1994 c -6.06373,0.94039 -12.24941,2.69214 -17.3869,6.04762 -6.04591,3.94881 -10.7211,9.87617 -14.74107,15.875 -2.00845,2.99713 -4.53572,9.82739 -4.53572,9.82739 l -13.9851202,11.71726 19.6547702,3.02381 c 0,0 6.19158,7.54678 8.69345,11.71726 4.08794,6.81436 6.54182,14.49302 10.20535,21.54464 4.47409,8.61179 8.37197,17.68983 14.3631,25.32441 3.74156,4.76793 8.09536,9.25196 13.22917,12.47321 6.28308,3.94236 13.4849,6.64368 20.78869,7.9375 8.80918,1.5605 17.923814,0.39935 26.836304,-0.37798 11.8238,-1.03126 23.61613,-2.87779 35.15179,-5.66964 11.46263,-2.77418 22.37258,-7.47763 33.63988,-10.96131 10.28441,-3.17979 30.99404,-9.07143 30.99404,-9.07143 0,0 -20.70582,-8.83567 -30.23809,-14.74107 -1.75664,-1.08827 -4.91369,-3.77976 -4.91369,-3.77976 0,0 11.14752,-15.29022 15.11905,-23.8125 4.40981,-9.46279 7.05878,-19.69765 9.4494,-29.86012 1.48939,-6.33134 3.02381,-19.27679 3.02381,-19.27679 l -30.50536,9.67082 c 0,0 -21.25419,7.27137 -31.99041,10.56435 -8.59589,2.63649 -25.95066,7.3571 -25.95066,7.3571 0,0 -10.31725,-11.40848 -16.252979,-16.25298 -6.199525,-5.0598 -12.848495,-9.70462 -20.032735,-13.22917 -5.25824,-2.57966 -10.86633,-4.63383 -16.63095,-5.66964 -4.5899,-0.82473 -9.3768,-1.09265 -13.98512,-0.37798 z"
       id="path24"
       sodipodi:nodetypes="aaacccaaaaaaaacacaaccacaaaa" />
    <path
       style="fill:none;stroke:#000000;stroke-width:0.264583px;stroke-linecap:butt;stroke-linejoin:miter;stroke-opacity:1"
       d="m 38.553576,188.9881 c -1.11081,0.5197 -1.94859,1.53313 -2.68973,2.51022 -0.97401,1.28411 -1.90361,2.71378 -2.22396,4.29335 -0.3207,1.58132 -1.18222,5.24471 0.376,4.82591 5.07794,-1.36481 1.86378,-0.3646 2.75515,-0.68161 1.82219,-0.64805 3.82105,-1.16955 5.24721,-2.47583 1.44326,-1.32194 2.242,-3.24991 2.96092,-5.07026 0.54344,-1.37602 2.43318,-5.09858 0.98466,-4.32774 0,0 -5.15552,-0.12892 -7.41025,0.92596 z"
       id="path26"
       sodipodi:nodetypes="aaasaaasa" />
    <path
       style="fill:#ff0000;stroke-width:0.188988"
       d="m 93.028234,141.39306 c -8.882732,-0.83215 -17.991521,-3.82514 -25.135416,-8.25907 -6.912264,-4.29016 -14.015474,-12.06885 -19.185496,-21.00993 -1.828601,-3.16241 -9.878327,-19.062442 -11.433664,-22.584082 -0.803368,-1.81901 -2.076506,-4.71053 -2.829198,-6.4256 -3.435135,-7.82722 -5.260009,-10.82648 -11.284603,-18.54671 -1.628529,-2.08688 -2.28351,-2.78935 -2.667085,-2.86046 -0.27964,-0.0518 -4.569317,-0.71528 -9.532617,-1.47432 -4.9633001,-0.75904 -9.0241806,-1.43316 -9.0241806,-1.49804 0,-0.0649 3.0063492,-2.63433 6.6807795,-5.70991 l 6.6807821,-5.59195 0.81502,-2.0503 c 2.002964,-5.03875 3.483832,-7.67961 6.766414,-12.06667 3.257288,-4.35325 7.244093,-8.44667 10.439397,-10.71857 4.547188,-3.2331 10.326841,-5.44287 17.520965,-6.698888 7.155143,-1.249214 15.53143,-0.326618 23.737578,2.614548 9.218004,3.30383 18.810234,9.056 28.2787,16.95788 2.41657,2.01675 8.66154,8.18924 12.82948,12.68059 1.49511,1.61113 2.83519,2.95695 2.97796,2.99072 0.44435,0.10509 19.85268,-5.33466 27.84881,-7.80544 2.23479,-0.69054 10.28275,-3.3314 17.88437,-5.86858 7.60162,-2.53719 20.01813,-6.57468 27.59225,-8.97222 7.57413,-2.39754 14.0147,-4.44018 14.31235,-4.53921 l 0.54121,-0.18004 -0.12793,1.08433 c -0.96909,8.21519 -2.21843,15.31959 -3.87966,22.06202 -3.69498,14.99684 -6.96007,23.73258 -12.00822,32.12798 -1.9691,3.27474 -7.04635,10.9642 -9.54616,14.45759 -0.85537,1.19535 -1.672,2.35012 -1.81473,2.56616 -0.2445,0.37006 -0.1411,0.48698 1.78679,2.0204 3.24393,2.580192 6.97724,4.725282 15.20053,8.733962 4.14586,2.02102 13.87389,6.4917 16.25442,7.47001 0.59884,0.2461 1.02407,0.50646 0.94494,0.57857 -0.0791,0.0721 -2.99287,0.94565 -6.47498,1.94121 -18.64457,5.33057 -25.17626,7.35261 -35.81324,11.08681 -15.20539,5.33797 -19.76749,6.65546 -30.33259,8.75971 -9.79499,1.95087 -17.09918,2.90726 -33.4509,4.37997 -3.16461,0.28502 -12.770568,0.51443 -14.552076,0.34753 z M 39.296397,47.794058 c 1.847996,-0.44745 4.391586,-1.37727 5.426149,-1.98356 1.101882,-0.64575 2.439924,-2.13428 3.09797,-3.44639 0.990145,-1.97431 2.538838,-5.81559 2.638348,-6.544 l 0.09682,-0.7087 -1.67853,0.004 c -2.117399,0.005 -5.422561,0.44241 -6.375519,0.84442 -1.383768,0.58375 -3.554703,3.00223 -4.656971,5.18799 -0.834871,1.65553 -1.414295,5.75087 -0.939241,6.63852 0.243387,0.45477 0.541718,0.45578 2.390978,0.008 z"
       id="path30" />
  </g>
</svg>
