<?xml version="1.0" encoding="UTF-8" standalone="no"?>
<svg
   xmlns:dc="http://purl.org/dc/elements/1.1/"
   xmlns:cc="http://creativecommons.org/ns#"
   xmlns:rdf="http://www.w3.org/1999/02/22-rdf-syntax-ns#"
   xmlns:svg="http://www.w3.org/2000/svg"
   xmlns="http://www.w3.org/2000/svg"
   xmlns:sodipodi="http://sodipodi.sourceforge.net/DTD/sodipodi-0.dtd"
   xmlns:inkscape="http://www.inkscape.org/namespaces/inkscape"
   width="210mm"
   height="297mm"
   viewBox="0 0 210 297"
   version="1.1"
   id="svg8"
   sodipodi:docname="Crest2.svg"
   inkscape:version="1.0.2 (e86c8708, 2021-01-15)">
  <defs
     id="defs2" />
  <sodipodi:namedview
     id="base"
     pagecolor="#ffffff"
     bordercolor="#666666"
     borderopacity="1.0"
     inkscape:pageopacity="0.0"
     inkscape:pageshadow="2"
     inkscape:zoom="0.7140625"
     inkscape:cx="-1747.6358"
     inkscape:cy="-633.86963"
     inkscape:document-units="mm"
     inkscape:current-layer="layer1"
     inkscape:document-rotation="0"
     showgrid="false"
     inkscape:window-width="1920"
     inkscape:window-height="1080"
     inkscape:window-x="0"
     inkscape:window-y="0"
     inkscape:window-maximized="0" />
  <metadata
     id="metadata5">
    <rdf:RDF>
      <cc:Work
         rdf:about="">
        <dc:format>image/svg+xml</dc:format>
        <dc:type
           rdf:resource="http://purl.org/dc/dcmitype/StillImage" />
        <dc:title></dc:title>
      </cc:Work>
    </rdf:RDF>
  </metadata>
  <g
     inkscape:label="Layer 1"
     inkscape:groupmode="layer"
     id="layer1">
    <path
       id="path30-8"
       style="fill:none;stroke:#000000;stroke-width:0.264583px;stroke-linecap:butt;stroke-linejoin:miter;stroke-opacity:1"
       d="m -389.31548,-171.22321 4.15774,15.875 c 0,0 -8.8093,-2.46223 -12.85119,-4.53571 -4.50923,-2.31322 -8.80399,-5.19761 -12.47322,-8.69346 -4.03225,-3.84171 -7.52884,-8.3451 -10.20536,-13.22916 -3.21766,-5.87153 -5.11241,-12.42053 -6.80357,-18.89881 -1.6454,-6.30301 -2.74929,-12.77908 -3.2128,-19.2768 -0.39454,-5.53102 -0.59871,-10.41661 0.37798,-16.63095 0.96196,-6.12061 7.37054,-18.14286 7.37054,-18.14286 l -54.0506,-27.21428 c 0,0 -6.622,3.60001 -9.4494,6.04762 -4.65984,4.0339 -9.02717,8.63971 -12.09524,13.98512 -2.71723,4.73414 -4.09,10.17241 -5.29167,15.49702 -1.45187,6.43326 -2.34621,13.06017 -2.26785,19.65476 0.065,5.46976 1.30469,10.8683 2.26785,16.25298 0.72668,4.0626 2.64584,12.09524 2.64584,12.09524 l 34.77381,-3.0238 c 0,0 -0.25512,7.36059 0.37797,10.9613 0.84865,4.82671 2.24085,9.65489 4.53572,13.98512 1.34537,2.5386 5.29166,6.80358 5.29166,6.80358 l -25.70237,8.50446 c 0,0 2.13895,13.37599 4.91368,19.46577 2.92728,6.42459 7.18346,12.31554 12.09524,17.38691 4.69832,4.85096 10.43412,8.66786 16.25298,12.09524 5.00437,2.94763 15.875,7.18154 15.875,7.18154 l 18.14285,-22.67857 c 0,0 5.76424,2.59467 8.69346,3.77977 5.98739,2.42238 11.95133,4.96456 18.14285,6.80356 5.56755,1.65367 10.84559,2.91041 16.34076,4.04703 4.12771,0.85378 12.47321,2.07888 12.47321,2.07888 m 2.55796,-59.04273 -32.88373,-1.13362 m -19.65486,-87.31266 52.53869,0.37798 m 0,70.11459 -52.53869,-70.49257 m 53.78333,153.72561 c 3.40237,0 6.8244,0.19212 10.20535,-0.18899 3.79963,-0.4283 7.65013,-1.33376 11.22858,-2.34614 2.72439,-0.77075 7.9375,-3.0238 7.9375,-3.0238 l 7.55953,26.458325 -38.1756,0.37798 -38.1756,-0.37798 7.55953,-26.458325 c 0,0 5.21311,2.25305 7.9375,3.0238 3.57845,1.01238 7.06964,1.91925 10.69404,2.34614 3.37901,0.39798 10.20535,0.18899 10.20535,0.18899 v 0 c 0,0 0,0 3.02382,0 z m 31.63929,-66.4131 -4.15774,15.875 c 0,0 8.8093,-2.46223 12.85119,-4.53571 4.50923,-2.31322 8.80399,-5.19761 12.47322,-8.69346 4.03225,-3.84171 7.52884,-8.3451 10.20536,-13.22916 3.21766,-5.87153 5.11241,-12.42053 6.80357,-18.89881 1.6454,-6.30301 2.74929,-12.77907 3.2128,-19.27679 0.39454,-5.53103 0.59871,-10.41661 -0.37798,-16.63096 -0.96196,-6.12061 -7.37054,-18.14285 -7.37054,-18.14285 l 54.0506,-27.21429 c 0,0 6.622,3.60001 9.4494,6.04762 4.65984,4.03391 9.02717,8.63971 12.09524,13.98512 2.71723,4.73415 4.09,10.17241 5.29167,15.49702 1.45187,6.43326 2.34621,13.06018 2.26785,19.65477 -0.065,5.46976 -1.30469,10.86829 -2.26785,16.25297 -0.72668,4.0626 -2.64584,12.09524 -2.64584,12.09524 l -34.77381,-3.0238 c 0,0 0.25512,7.36059 -0.37797,10.9613 -0.84865,4.82671 -2.24085,9.65489 -4.53572,13.98512 -1.34537,2.5386 -5.29166,6.80358 -5.29166,6.80358 l 25.70237,8.50446 c 0,0 -2.13895,13.37599 -4.91368,19.46577 -2.92728,6.42459 -7.18346,12.31554 -12.09524,17.38691 -4.69832,4.85096 -10.43412,8.66786 -16.25298,12.09524 -5.00437,2.94763 -15.875,7.18154 -15.875,7.18154 l -18.14285,-22.67857 c 0,0 -5.76424,2.59467 -8.69346,3.77977 -5.98739,2.42238 -11.95133,4.96456 -18.14285,6.80356 -5.56756,1.65367 -11.72582,2.98779 -17.67711,4.04703 -5.37729,0.95707 -16.25298,2.07888 -16.25298,2.07888 m 2.55816,-59.04273 32.88373,-1.13362 m 19.65486,-87.31265 -52.53869,0.37797 m 0,70.11459 52.53869,-70.49256"
       sodipodi:nodetypes="ccssssssccsssssccssccsssccssacccccccsascccccsaccsccssssssccsssssccssccsssccssaccccccc" />
  </g>
</svg>
