<?xml version="1.0" encoding="UTF-8" standalone="no"?>
<svg
   xmlns:dc="http://purl.org/dc/elements/1.1/"
   xmlns:cc="http://creativecommons.org/ns#"
   xmlns:rdf="http://www.w3.org/1999/02/22-rdf-syntax-ns#"
   xmlns:svg="http://www.w3.org/2000/svg"
   xmlns="http://www.w3.org/2000/svg"
   xmlns:sodipodi="http://sodipodi.sourceforge.net/DTD/sodipodi-0.dtd"
   xmlns:inkscape="http://www.inkscape.org/namespaces/inkscape"
   width="210mm"
   height="297mm"
   viewBox="0 0 210 297"
   version="1.1"
   id="svg8"
   inkscape:version="1.0.2 (e86c8708, 2021-01-15)"
   sodipodi:docname="Crest2.svg">
  <defs
     id="defs2" />
  <sodipodi:namedview
     id="base"
     pagecolor="#ffffff"
     bordercolor="#666666"
     borderopacity="1.0"
     inkscape:pageopacity="0.0"
     inkscape:pageshadow="2"
     inkscape:zoom="0.35"
     inkscape:cx="-625.57599"
     inkscape:cy="33.479847"
     inkscape:document-units="mm"
     inkscape:current-layer="layer1"
     inkscape:document-rotation="0"
     showgrid="false"
     inkscape:window-width="1553"
     inkscape:window-height="942"
     inkscape:window-x="302"
     inkscape:window-y="42"
     inkscape:window-maximized="0" />
  <metadata
     id="metadata5">
    <rdf:RDF>
      <cc:Work
         rdf:about="">
        <dc:format>image/svg+xml</dc:format>
        <dc:type
           rdf:resource="http://purl.org/dc/dcmitype/StillImage" />
        <dc:title></dc:title>
      </cc:Work>
    </rdf:RDF>
  </metadata>
  <g
     inkscape:label="Layer 1"
     inkscape:groupmode="layer"
     id="layer1">
    <path
       id="path30-8"
       style="fill:none;stroke:#000000;stroke-width:0.264583px;stroke-linecap:butt;stroke-linejoin:miter;stroke-opacity:1"
       d="m -389.31548,-171.22321 4.15774,15.875 c 0,0 -8.8093,-2.46223 -12.85119,-4.53571 -4.50923,-2.31322 -8.80399,-5.19761 -12.47322,-8.69346 -4.03225,-3.84171 -7.52884,-8.3451 -10.20536,-13.22916 -3.21766,-5.87153 -5.11241,-12.42053 -6.80357,-18.89881 -1.6454,-6.30301 -2.74929,-12.77908 -3.2128,-19.2768 -0.39454,-5.53102 -0.59871,-10.41661 0.37798,-16.63095 0.96196,-6.12061 7.37054,-18.14286 7.37054,-18.14286 l -54.0506,-27.21428 c 0,0 -6.622,3.60001 -9.4494,6.04762 -4.65984,4.0339 -9.02717,8.63971 -12.09524,13.98512 -2.71723,4.73414 -4.09,10.17241 -5.29167,15.49702 -1.45187,6.43326 -2.34621,13.06017 -2.26785,19.65476 0.065,5.46976 1.30469,10.8683 2.26785,16.25298 0.72668,4.0626 2.64584,12.09524 2.64584,12.09524 l 34.77381,-3.0238 c 0,0 -0.25512,7.36059 0.37797,10.9613 0.84865,4.82671 2.24085,9.65489 4.53572,13.98512 1.34537,2.5386 5.29166,6.80358 5.29166,6.80358 l -25.70237,8.50446 c 0,0 2.13895,13.37599 4.91368,19.46577 2.92728,6.42459 7.18346,12.31554 12.09524,17.38691 4.69832,4.85096 10.43412,8.66786 16.25298,12.09524 5.00437,2.94763 15.875,7.18154 15.875,7.18154 l 18.14285,-22.67857 c 0,0 5.76424,2.59467 8.69346,3.77977 5.98739,2.42238 11.95133,4.96456 18.14285,6.80356 5.56755,1.65367 10.84559,2.91041 16.34076,4.04703 4.12771,0.85378 12.47321,2.07888 12.47321,2.07888 m 2.55796,-59.04273 -32.88373,-1.13362 m -19.65486,-87.31266 52.53869,0.37798 m 0,70.11459 -52.53869,-70.49257 m 53.78333,153.72561 c 3.40237,0 6.8244,0.19212 10.20535,-0.18899 3.79963,-0.4283 7.65013,-1.33376 11.22858,-2.34614 2.72439,-0.77075 7.9375,-3.0238 7.9375,-3.0238 l 7.55953,26.458325 -38.1756,0.37798 -38.1756,-0.37798 7.55953,-26.458325 c 0,0 5.21311,2.25305 7.9375,3.0238 3.57845,1.01238 7.06964,1.91925 10.69404,2.34614 3.37901,0.39798 10.20535,0.18899 10.20535,0.18899 v 0 c 0,0 0,0 3.02382,0 z m 31.63929,-66.4131 -4.15774,15.875 c 0,0 8.8093,-2.46223 12.85119,-4.53571 4.50923,-2.31322 8.80399,-5.19761 12.47322,-8.69346 4.03225,-3.84171 7.52884,-8.3451 10.20536,-13.22916 3.21766,-5.87153 5.11241,-12.42053 6.80357,-18.89881 1.6454,-6.30301 2.74929,-12.77907 3.2128,-19.27679 0.39454,-5.53103 0.59871,-10.41661 -0.37798,-16.63096 -0.96196,-6.12061 -7.37054,-18.14285 -7.37054,-18.14285 l 54.0506,-27.21429 c 0,0 6.622,3.60001 9.4494,6.04762 4.65984,4.03391 9.02717,8.63971 12.09524,13.98512 2.71723,4.73415 4.09,10.17241 5.29167,15.49702 1.45187,6.43326 2.34621,13.06018 2.26785,19.65477 -0.065,5.46976 -1.30469,10.86829 -2.26785,16.25297 -0.72668,4.0626 -2.64584,12.09524 -2.64584,12.09524 l -34.77381,-3.0238 c 0,0 0.25512,7.36059 -0.37797,10.9613 -0.84865,4.82671 -2.24085,9.65489 -4.53572,13.98512 -1.34537,2.5386 -5.29166,6.80358 -5.29166,6.80358 l 25.70237,8.50446 c 0,0 -2.13895,13.37599 -4.91368,19.46577 -2.92728,6.42459 -7.18346,12.31554 -12.09524,17.38691 -4.69832,4.85096 -10.43412,8.66786 -16.25298,12.09524 -5.00437,2.94763 -15.875,7.18154 -15.875,7.18154 l -18.14285,-22.67857 c 0,0 -5.76424,2.59467 -8.69346,3.77977 -5.98739,2.42238 -11.95133,4.96456 -18.14285,6.80356 -5.56756,1.65367 -11.72582,2.98779 -17.67711,4.04703 -5.37729,0.95707 -16.25298,2.07888 -16.25298,2.07888 m 2.55816,-59.04273 32.88373,-1.13362 m 19.65486,-87.31265 -52.53869,0.37797 m 0,70.11459 52.53869,-70.49256"
       sodipodi:nodetypes="ccssssssccsssssccssccsssccssacccccccsascccccsaccsccssssssccsssssccssccsssccssaccccccc" />
    <path
       style="fill:#ff0000;stroke-width:2.85714"
       d="m -1384.6581,-764.57211 c -19.9238,-26.99999 -63.2969,-85.41233 -96.3848,-129.80519 l -60.1597,-80.71428 h 194.1883 194.1884 l -93.0988,125 c -51.2043,68.75 -95.2159,127.16233 -97.8036,129.80518 -4.3877,4.48126 -7.1469,1.49583 -40.9298,-44.28571 z"
       id="path1024"
       transform="scale(0.26458333)" />
    <path
       style="fill:#ff0000;stroke-width:2.85714"
       d="m -1662.3021,-410.67235 c -80.6973,-35.22963 -131.1181,-89.40526 -149.0691,-160.17006 -3.8841,-15.31146 -7.0619,-29.95734 -7.0619,-32.5464 0,-3.53126 10.5293,-8.17743 42.1428,-18.596 23.1786,-7.63874 45.1213,-14.99911 48.7615,-16.35637 l 6.6186,-2.46774 -9.8343,-12.14135 c -5.4088,-6.67771 -11.9946,-16.3948 -14.6352,-21.59354 -7.8363,-15.42817 -15.9106,-51.56597 -15.9106,-71.2104 v -18.31997 l -15,1.64326 c -67.0823,7.34888 -114.5858,10.32097 -116.4612,7.28645 -1.1205,-1.81288 -5.6137,-21.87285 -9.9851,-44.57775 -6.9716,-36.21089 -7.7482,-45.5686 -6.3221,-76.18263 1.8166,-38.99715 11.3297,-81.7384 23.9228,-107.4823 9.4269,-19.27115 42.7495,-54.84405 64.8051,-69.18135 l 16.6738,-10.8389 100.8664,50.4094 100.8665,50.40932 -9.7491,21.39283 c -17.4554,38.30333 -19.1517,47.84577 -17.3231,97.44631 1.8015,48.86386 8.7975,85.45896 24.5502,128.4183 21.322,58.1476 67.1449,103.33469 124.9594,123.22583 27.9163,9.6046 27.5375,10.11666 18.1609,-24.54617 -8.1484,-30.12229 -8.149,-30.13083 -1.9148,-28.10569 3.4298,1.11415 57.986,2.00052 121.236,1.96969 63.25,-0.0309 114.9743,0.72388 114.9428,1.67711 -0.031,0.95326 -3.1108,13.62603 -6.8429,28.16175 -7.5922,29.5702 -8.1051,28.8544 15.6673,21.86757 45.8974,-13.48952 94.1133,-53.70415 116.1407,-96.86757 21.901,-42.91572 34.5381,-95.56438 37.0328,-154.28572 2.0097,-47.30317 -0.3573,-61.11077 -16.3125,-95.15824 -6.2666,-13.37274 -11.0609,-24.61189 -10.6539,-24.9759 0.407,-0.364 45.8529,-23.20344 100.99097,-50.75432 l 100.25094,-50.0925 16.89191,10.7818 c 18.54135,11.8345 47.60552,40.8685 58.83172,58.77059 17.0634,27.21044 30.935,85.9702 30.8924,130.85933 -0.0229,23.0351 -13.41615,104.9627 -17.892,109.43858 -1.14229,1.14226 -78.01695,-4.86994 -115.65449,-9.04511 l -15,-1.66397 -0.0497,16.63414 c -0.10429,34.96757 -11.91506,71.95389 -30.04029,94.07332 -5.48934,6.69902 -9.00048,12.73531 -7.80251,13.414 1.19797,0.67868 22.74954,8.01154 47.8924,16.29522 25.14285,8.28369 46.20468,15.48306 46.80405,15.99858 2.3082,1.98537 -11.93791,57.61562 -18.4934,72.2156 -21.86222,48.69008 -69.35185,93.32608 -128.0547,120.35991 -37.9107,17.45863 -31.1884,20.09186 -68.9593,-27.01269 -18.3316,-22.8618 -34.4004,-41.56691 -35.7083,-41.56691 -1.3079,0 -21.1657,7.66549 -44.1286,17.0344 -58.3739,23.81671 -93.4575,33.132 -155.2662,41.22571 -28.2813,3.70338 -33.3869,3.60889 -59.2842,-1.09714 -49.1697,-8.93508 -86.9195,-19.903 -133.6132,-38.82028 -24.9014,-10.08849 -46.3009,-18.34269 -47.5545,-18.34269 -1.2535,0 -17.2279,18.64286 -35.4987,41.42857 -18.2708,22.78572 -34.1569,41.41289 -35.3026,41.39369 -1.1457,-0.02 -12.1813,-4.4434 -24.5235,-9.8316 z"
       id="path1026"
       transform="scale(0.26458333)" />
    <path
       style="fill:#ff0000;stroke-width:2.85714"
       d="m -1475.7474,-364.3773 c 15.3104,-53.1325 10.315,-49.34574 50.1714,-38.0326 23.2963,6.61261 30.5502,7.29588 77.1429,7.2664 52.1154,-0.033 72.9305,-2.78455 100.8469,-13.33103 7.1701,-2.70878 13.2169,-3.56382 14.5392,-2.05586 2.3312,2.65859 26.0424,84.22263 26.0424,89.58312 0,2.05281 -44.4903,2.99855 -141.0607,2.99855 h -141.0607 z"
       id="path1028"
       transform="scale(0.26458333)" />
    <path
       style="fill:#ff0000;stroke-width:2.85714"
       d="m -1486.0782,-322.4899 c 0.8816,-3.00235 5.6075,-19.60168 10.5022,-36.8874 4.8947,-17.28571 9.5527,-33.67096 10.3512,-36.41165 3.7194,-12.76701 7.8744,-13.46295 36.0038,-6.0305 25.0607,6.62165 29.9209,6.94496 89.3593,5.94444 56.2991,-0.94767 65.021,-1.75422 83.5973,-7.73052 11.407,-3.66985 21.3298,-6.08278 22.0505,-5.36206 2.4707,2.47073 25.508,85.10119 24.1145,86.49461 -0.7657,0.7657 -63.5347,2.30337 -139.4868,3.41705 -135.0904,1.98081 -138.0598,1.9061 -136.492,-3.43397 z"
       id="path1030"
       transform="scale(0.26458333)" />
  </g>
</svg>
