<?xml version="1.0" encoding="UTF-8" standalone="no"?>
<svg
   xmlns:dc="http://purl.org/dc/elements/1.1/"
   xmlns:cc="http://creativecommons.org/ns#"
   xmlns:rdf="http://www.w3.org/1999/02/22-rdf-syntax-ns#"
   xmlns:svg="http://www.w3.org/2000/svg"
   xmlns="http://www.w3.org/2000/svg"
   xmlns:sodipodi="http://sodipodi.sourceforge.net/DTD/sodipodi-0.dtd"
   xmlns:inkscape="http://www.inkscape.org/namespaces/inkscape"
   width="210mm"
   height="297mm"
   viewBox="0 0 210 297"
   version="1.1"
   id="svg8"
   inkscape:version="1.0.2 (e86c8708, 2021-01-15)"
   sodipodi:docname="Gear.svg">
  <defs
     id="defs2" />
  <sodipodi:namedview
     id="base"
     pagecolor="#ffffff"
     bordercolor="#666666"
     borderopacity="1.0"
     inkscape:pageopacity="0.0"
     inkscape:pageshadow="2"
     inkscape:zoom="0.35"
     inkscape:cx="2148.2255"
     inkscape:cy="580.62956"
     inkscape:document-units="mm"
     inkscape:current-layer="layer1"
     inkscape:document-rotation="0"
     showgrid="false"
     inkscape:window-width="1920"
     inkscape:window-height="1080"
     inkscape:window-x="0"
     inkscape:window-y="0"
     inkscape:window-maximized="0" />
  <metadata
     id="metadata5">
    <rdf:RDF>
      <cc:Work
         rdf:about="">
        <dc:format>image/svg+xml</dc:format>
        <dc:type
           rdf:resource="http://purl.org/dc/dcmitype/StillImage" />
        <dc:title></dc:title>
      </cc:Work>
    </rdf:RDF>
  </metadata>
  <g
     inkscape:label="Layer 1"
     inkscape:groupmode="layer"
     id="layer1">
    <path
       id="path79-9"
       style="fill:none;stroke:#000000;stroke-width:0.277271px;stroke-linecap:butt;stroke-linejoin:miter;stroke-opacity:1"
       d="m 548.94667,295.69981 3.92192,-19.20252 4.31409,-22.0029 c 0,0 9.70589,4.94352 14.90326,6.40086 4.58151,1.28466 9.66629,3.51925 25.37752,3.51925 15.71125,0 20.24139,-2.23459 24.82289,-3.51925 5.19737,-1.45734 14.90326,-6.40086 14.90326,-6.40086 l 4.3141,22.0029 3.92191,19.20252 h -48.23947 z m 20.00173,-47.60625 c -8.27159,-1.8935 -16.49161,-4.27266 -24.31583,-7.601 -7.39568,-3.14605 -21.1783,-11.60153 -21.1783,-11.60153 l -21.5705,34.80459 c 0,0 -18.24911,-6.63721 -26.2768,-12.0016 -6.65715,-4.44854 -12.47322,-10.23509 -17.64859,-16.40215 -6.01259,-7.16468 -11.14681,-15.17459 -15.29543,-23.60309 -4.49037,-9.1228 -10.19696,-28.80379 -10.19696,-28.80379 l 37.25812,-12.80168 c 0,0 -7.27931,-9.33638 -9.80477,-17.20225 -1.72624,-5.37661 -1.95997,-11.15885 -2.35314,-16.80221 -0.31508,-4.52252 0,-13.60179 0,-13.60179 l -47.0629,4.40058 c 0,0 -3.37576,-9.20402 -4.3141,-14.00184 -1.72048,-8.79691 -2.45306,-17.833836 -2.35313,-26.803513 0.11952,-10.734678 0.46411,-21.734361 3.52969,-32.004198 3.30419,-11.069082 8.74078,-21.656875 15.68766,-30.804049 5.27249,-6.942449 19.21733,-17.6023093 19.21733,-17.6023093 l 72.16313,42.0055173 c 0,0 -5.2884,15.266988 -6.66725,23.203048 -1.73757,10.000727 -2.39817,20.257214 -1.96095,30.403994 0.48793,11.32388 1.99582,22.72038 5.09849,33.6044 2.54991,8.945 5.72161,17.98801 10.98133,25.60337 5.3796,7.78893 12.79654,14.05984 20.39392,19.60257 6.37375,4.65001 20.78612,11.20146 20.78612,11.20146 l -7.05943,-24.80325 41.18003,-0.8001 41.18005,0.8001 -7.05944,24.80325 c 0,0 14.41237,-6.55145 20.78612,-11.20146 7.59738,-5.54273 15.01432,-11.81364 20.39393,-19.60257 5.25971,-7.61536 8.43141,-16.65837 10.98133,-25.60337 3.10267,-10.88402 4.61055,-22.28052 5.09848,-33.60441 0.4372,-10.146781 -0.22338,-20.403268 -1.96094,-30.403994 -1.37887,-7.936061 -6.66726,-23.203038 -6.66726,-23.203038 l 72.1631,-42.0055173 c 0,0 13.94485,10.6598603 19.21734,17.6023093 6.94688,9.147174 12.38347,19.734967 15.68765,30.804039 3.06559,10.269847 3.41018,21.26953 3.52971,32.004198 0.0999,8.969676 -0.63265,18.006603 -2.35314,26.803523 -0.93834,4.79782 -4.3141,14.00184 -4.3141,14.00184 l -47.0629,-4.40058 c 0,0 0.31509,9.07927 0,13.60179 -0.39318,5.64336 -0.6269,11.4256 -2.35314,16.80221 -2.52546,7.86587 -9.80477,17.20225 -9.80477,17.20225 l 37.25812,12.80168 c 0,0 -5.70659,19.68099 -10.19695,28.80379 -4.14862,8.4285 -9.28285,16.43841 -15.29545,23.60309 -5.17536,6.16706 -10.99143,11.95361 -17.64858,16.40215 -8.02768,5.36439 -26.2768,12.0016 -26.2768,12.0016 l -21.57048,-34.80459 c 0,0 -13.78262,8.45548 -21.1783,11.60153 -7.82422,3.32834 -16.04424,5.7075 -24.31584,7.601 -7.99146,1.82937 -15.01946,4.50018 -27.12844,4.50018 -12.10899,0 -21.35557,-2.67081 -29.34704,-4.50018 z M 626.99265,40.86635 h -95.69456 l 65.88805,102.01339 M 567.37963,40.86635 h 95.69458 l -65.88807,102.01339 m -38.6533,248.77544 -16.60533,-41.82335 c 0,0 -15.88236,-2.31428 -23.44284,-4.86317 -8.55215,-2.88321 -24.41962,-11.67162 -24.41962,-11.67162 l -36.14102,26.26118 -53.72315,-39.87807 11.7214,-43.76861 c 0,0 -12.62634,-10.89216 -17.58212,-17.50743 -5.31377,-7.09315 -12.6982,-23.34326 -12.6982,-23.34326 l -44.93209,-0.97264 -20.51248,-58.35812 40.04818,-29.17908 c 0,0 -1.97653,-15.88781 -1.46518,-23.82957 0.49845,-7.74151 4.39553,-22.856935 4.39553,-22.856935 l -37.11782,-28.20643 22.46605,-57.385498 49.81601,1.94527 c 0,0 6.46946,-13.3994598 10.74464,-19.4527098 4.24636,-6.01245 14.65176,-16.5348002 14.65176,-16.5348002 l -11.72142,-39.87807 52.74638,-36.96015 38.09459,25.77485 c 0,0 15.22066,-8.2024 23.44284,-10.699 8.67842,-2.63513 26.86159,-4.37685 26.86159,-4.37685 l 9.27944,-38.905427 h 32.2339 l 36.14101,0.97263 9.27944,38.905427 c 0,0 18.18316,1.74172 26.86159,4.37687 8.22218,2.49658 23.44284,10.69898 23.44284,10.69898 l 38.09459,-25.77483 52.74637,36.96015 -11.72141,39.87805 c 0,0 10.4054,10.5223602 14.65176,16.5348002 4.27517,6.05326 10.74464,19.4527198 10.74464,19.4527198 l 49.81601,-1.94528 22.46605,57.385502 -37.11781,28.206431 c 0,0 3.89707,15.11542 4.39552,22.85693 0.51135,7.94176 -1.46516,23.82957 -1.46516,23.82957 l 40.04815,29.17908 -20.51248,58.35813 -44.93209,0.97263 c 0,0 -7.38442,16.25011 -12.69819,23.34326 -4.95578,6.61528 -17.58212,17.50743 -17.58212,17.50743 l 11.7214,43.76861 -53.72315,39.87807 -36.14103,-26.26118 c 0,0 -15.86747,8.78841 -24.41961,11.67162 -7.56048,2.54889 -23.44284,4.86317 -23.44284,4.86317 l -16.60533,41.82336 -38.09459,0.48631 z"
       sodipodi:nodetypes="cccssscccccssccsssccssccssssccssssscccccsssssccssssccssccsssccssssccccccccsccccsccccsccccsccccscccccsccccsccccsccccsccccscccc" />
    <path
       style="fill:#ff0000;stroke:#800080;stroke-width:2.85714"
       d="m 2134.4347,346.04009 c -66.5135,-103.04401 -120.3991,-187.8873 -119.7458,-188.54063 0.6534,-0.65334 110.3997,-0.8592 243.8808,-0.45747 l 242.6928,0.73043 -120.8674,187.14285 c -66.4771,102.92858 -121.8033,187.44318 -122.9471,187.81023 -1.1438,0.36703 -56.4998,-83.6414 -123.0133,-186.68541 z"
       id="path127"
       transform="scale(0.26458333)" />
    <path
       style="fill:#ff0000;stroke:#800080;stroke-width:2.85714"
       d="m 1866.4393,982.30467 c -42.3444,-17.8894 -70.4376,-33.68528 -91.3875,-51.38417 -35.7702,-30.21943 -77.7582,-86.01531 -100.0451,-132.94508 -12.5576,-26.44272 -38.4871,-102.34949 -35.8389,-104.91577 1.0531,-1.0206 31.925,-12.17363 68.6041,-24.78452 36.6791,-12.61086 67.2439,-23.48354 67.9219,-24.16151 0.678,-0.67795 -5.7869,-12.41346 -14.3663,-26.07892 -8.5795,-13.66545 -17.6043,-30.88631 -20.0552,-38.26857 -6.2589,-18.85183 -9.9982,-51.05531 -10.1014,-86.99371 l -0.088,-30.71429 -7.8571,0.0229 c -4.3214,0.0143 -41.2857,3.22283 -82.1429,7.13231 -40.8571,3.90949 -77.6187,7.11289 -81.6925,7.11869 -6.8328,0.009 -7.9926,-1.92686 -14.9659,-24.98949 -4.1576,-13.74865 -9.1685,-34.64151 -11.1355,-46.42723 -4.8014,-28.76982 -4.7004,-138.10516 0.1516,-164.06865 11.3115,-60.52796 43.7448,-127.50769 80.1186,-165.456994 17.6515,-18.416026 56.9074,-51.198378 59.8741,-50.000572 10.6656,4.306104 266.2211,155.214466 266.2211,157.206516 0,1.42511 -4.571,18.28004 -10.1577,37.45541 -14.5918,50.08384 -19.065,83.48266 -19.0194,142.00715 0.069,88.95189 18.5658,172.89709 50.7937,230.52606 13.6489,24.40637 51.5177,63.8064 82.5267,85.86363 23.4466,16.67794 83.004,48.84388 85.6109,46.237 0.7245,-0.72449 -4.3881,-21.1838 -11.3613,-45.46512 -6.9733,-24.28131 -12.6787,-44.94534 -12.6787,-45.92003 0,-3.26511 149.9272,-5.73685 227.7172,-3.7542 l 76.9396,1.96098 -12.8677,45.21271 c -7.0772,24.867 -12.0889,45.99149 -11.1372,46.94326 3.0561,3.05608 64.8338,-30.37309 88.3435,-47.80446 26.7941,-19.86663 54.6957,-47.10549 67.8789,-66.26654 23.6913,-34.43417 44.4789,-93.3054 55.1209,-156.10472 4.7224,-27.8668 6.0604,-47.95634 6.0897,-91.42857 0.043,-64.0715 -3.7314,-91.70114 -19.8457,-145.27446 -5.7671,-19.17304 -9.9801,-35.36368 -9.3624,-35.9792 1.0826,-1.07864 218.2827,-127.809798 251.8641,-146.956797 l 16.4551,-9.382158 17.8306,14.297958 c 42.3156,33.931942 71.0396,70.295077 93.6636,118.573507 25.1376,53.64227 32.9951,101.76042 30.3899,186.10284 -1.689,54.67877 -5.0111,78.07651 -16.1323,113.61831 -5.163,16.50052 -6.9874,19.28572 -12.6331,19.28572 -3.6292,0 -40.5418,-3.20823 -82.0281,-7.1294 -41.4862,-3.92118 -78.9651,-7.13546 -83.2866,-7.14286 l -7.8571,-0.0135 -0.057,33.57143 c -0.1023,60.669 -6.7779,87.04743 -31.6847,125.20089 -7.8536,12.03054 -13.7571,22.39591 -13.1188,23.03417 0.6382,0.63825 31.8857,11.6462 69.4388,24.46211 37.5532,12.81589 68.7627,23.66823 69.3544,24.11629 2.3944,1.81291 -29.2552,89.34863 -40.0749,110.83828 -25.2483,50.14729 -63.0657,99.20735 -100.3782,130.21957 -30.4906,25.34223 -114.8523,65.14698 -120.0885,56.66189 -1.2962,-2.1004 -19.7113,-31.80477 -40.9224,-66.00969 l -38.5658,-62.19077 -11.9516,7.27649 c -56.8093,34.58706 -92.8846,49.0754 -171.9517,69.05814 -48.0066,12.1328 -53.995,13.01032 -90,13.18829 -40.5271,0.20028 -56.1233,-2.1612 -120.7194,-18.279 -60.2184,-15.02552 -92.8795,-28.84635 -153.923,-65.13397 l -10.3567,-6.15663 -40.6096,65.78554 c -22.3352,36.18206 -41.4604,65.74789 -42.5004,65.70186 -1.04,-0.046 -13.6232,-5.04029 -27.9627,-11.09835 z"
       id="path129"
       transform="scale(0.26458333)" />
    <path
       style="fill:#ff0000;stroke:#800080;stroke-width:2.85714"
       d="m 2077.9037,1111.3438 c 0.8205,-2.75 7.4096,-35.2142 14.6424,-72.1428 7.2328,-36.9286 13.6927,-68.78526 14.3553,-70.79263 0.8864,-2.68507 5.0063,-1.72342 15.5871,3.63824 29.0162,14.70363 63.391,24.09851 100.7493,27.53551 62.1139,5.71458 116.3251,-2.86016 165.6947,-26.2083 l 17.812,-8.42371 14.8538,73.55399 c 8.1696,40.4547 14.9314,74.5183 15.0262,75.6969 0.095,1.1786 -80.9142,2.1428 -180.0201,2.1428 -170.2755,0 -180.1104,-0.2751 -178.7007,-5 z"
       id="path131"
       transform="scale(0.26458333)" />
    <path
       style="fill:#00ff00;stroke:#800080;stroke-width:2.85714"
       d="m 2203.9398,1481.8406 c -23.5715,-1.046 -53.7857,-2.0808 -67.1429,-2.2994 l -24.2857,-0.3976 -31.1611,-79.3094 -31.161,-79.3094 -35.1793,-6.3161 c -44.7134,-8.0279 -62.3398,-14.0418 -108.0953,-36.8808 -20.364,-10.1647 -39.0068,-17.9465 -41.4286,-17.2929 -2.4218,0.6536 -33.7029,22.5426 -69.5135,48.6421 l -65.1103,47.4537 -49.1754,-36.5064 c -27.0465,-20.0786 -71.9969,-53.4481 -99.8898,-74.1545 -27.8928,-20.7064 -50.7143,-38.4611 -50.7143,-39.4548 0,-0.9938 9.6844,-38.1619 21.5209,-82.5959 l 21.5209,-80.7891 -31.598,-30.8137 c -33.6399,-32.80473 -45.1661,-48.80167 -68.1185,-94.53964 -12.9058,-25.71783 -15.365,-28.91229 -23.5121,-30.54171 -5.0044,-1.00089 -33.8156,-1.81978 -64.0249,-1.81978 -30.2094,0 -64.6311,-0.82037 -76.4928,-1.82305 l -21.5667,-1.82306 -37.4358,-106.48971 c -20.5897,-58.56938 -37.3576,-107.57043 -37.2619,-108.89126 0.096,-1.3208 33.6016,-26.63843 74.4575,-56.26134 l 74.2836,-53.85986 -2.3147,-30.42586 c -3.7118,-48.79237 -2.3014,-74.07946 6.3205,-113.31703 5.1413,-23.39748 6.9367,-36.88905 5.0698,-38.09648 -1.5898,-1.0282 -33.0558,-24.86597 -69.9243,-52.97277 l -67.0337,-51.10326 41.6266,-107.01774 41.6265,-107.017747 38.5714,1.6676 c 21.2143,0.917172 63.8526,2.515315 94.7517,3.551429 l 56.1803,1.883886 12.0363,-24.001886 c 17.9195,-35.7337145 33.5131,-58.329057 59.4425,-86.132943 12.8169,-13.743543 23.3035,-26.441057 23.3035,-28.216714 0,-1.775657 -9.6419,-36.067655 -21.4264,-76.204455 -11.7845,-40.13678 -21.1059,-73.18712 -20.7143,-73.44519 0.3917,-0.25809 44.1512,-30.89994 97.2433,-68.09304 53.0921,-37.19309 97.636,-67.6238 98.9864,-67.6238 1.3504,0 32.8851,20.6428 70.0771,45.8729 37.192,25.23009 69.2076,46.48142 71.1458,47.22517 1.9381,0.74375 19.5359,-6.27591 39.106,-15.59925 43.7664,-20.85057 64.8744,-27.44226 106.2613,-33.18373 17.6979,-2.45517 36.0999,-5.08343 40.8934,-5.84057 l 8.7154,-1.37663 17.0687,-72.12037 17.0687,-72.12038 126.6926,0.37168 c 84.3078,0.24733 127.2979,1.36638 128.5016,3.34494 0.9949,1.6353 9.3825,35.0502 18.6389,74.25534 l 16.83,71.28208 18.8843,1.76018 c 57.7252,5.38045 94.3145,15.77737 144.594,41.08657 l 28.5668,14.37969 71.8593,-48.58376 71.8592,-48.58376 98.43,68.87956 98.43,68.87956 -22.0386,74.85912 -22.0385,74.859088 25.8019,28.747714 c 28.0517,31.254314 36.6497,43.6834569 57.7801,83.526028 l 13.8987,26.206915 24.4422,-1.292086 c 73.8817,-3.905543 161.7075,-6.380657 163.1742,-4.5986 0.9273,1.126571 20.1622,49.390031 42.7443,107.252141 25.0085,64.07914 39.9341,105.9618 38.1821,107.14286 -2.3858,1.60837 -131.4116,99.37948 -135.1314,102.39768 -0.6529,0.52978 2.4259,19.28615 6.8417,41.68086 7.3997,37.52712 7.8994,44.18772 6.3776,85.00334 -0.9081,24.35715 -2.4141,46.267 -3.3467,48.68855 -1.2502,3.24634 18.2313,18.91851 74.1674,59.665 56.2179,40.9518 75.4821,56.45871 74.3921,59.88288 -0.8089,2.5414 -17.9792,51.54929 -38.1561,108.90643 l -36.6854,104.28572 -68.3445,1.75565 c -37.5896,0.9656 -75.6847,1.92989 -84.6558,2.14286 l -16.3112,0.3872 -15.9172,31.11794 c -23.6554,46.24595 -34.7355,61.55957 -68.2229,94.2897 -16.7092,16.3313 -30.3445,31.117 -30.3006,32.8571 0.044,1.7401 9.6139,38.4402 21.2667,81.5558 11.6527,43.1156 20.5996,79.3421 19.882,80.5032 -0.7176,1.1611 -45.6245,35.0938 -99.793,75.406 l -98.4883,73.2949 -9.3308,-6.5911 c -5.1318,-3.6252 -35.4992,-25.5843 -67.483,-48.7981 -31.9838,-23.2138 -59.1204,-42.2069 -60.3035,-42.2069 -1.1831,0 -14.2289,6.3481 -28.9905,14.1068 -41.3785,21.7486 -69.0165,31.7126 -112.3108,40.4901 -21.8664,4.4331 -40.657,9.0696 -41.7568,10.3031 -1.0998,1.2336 -15.1096,35.6715 -31.1328,76.5286 -16.0232,40.8571 -30.0184,75.0879 -31.1004,76.0683 -3.0276,2.7436 -145.2104,4.424 -193.3957,2.2856 z m 221.9808,-441.9253 c -8.6572,-43.60717 -15.9767,-79.61805 -16.2657,-80.02425 -0.289,-0.40618 -11.336,4.25268 -24.5489,10.353 -42.2455,19.50457 -61.1238,23.715 -113.6139,25.33928 -65.115,2.01494 -94.5513,-3.4546 -146.973,-27.309 -13.4626,-6.12611 -19.7734,-7.77786 -20.5706,-5.38391 -1.8824,5.65314 -30.0253,148.85758 -30.0167,152.73918 0.01,2.82 38.6891,3.5714 183.8685,3.5714 h 183.8606 z M 1937.9401,934.89319 c 21.843,-35.345 41.1287,-64.26032 42.8571,-64.25629 1.7284,0.003 10.7808,4.61306 20.1164,10.24226 47.5253,28.65689 82.554,42.40397 148.7405,58.3734 92.1028,22.22251 126.0265,22.51894 208.5714,1.8224 73.611,-18.45654 109.7351,-32.66191 159.8901,-62.87491 l 16.7529,-10.09183 39.4598,63.40351 c 21.7029,34.87194 39.85,64.47177 40.3269,65.77743 1.8988,5.19824 82.4126,-30.3112 107.856,-47.56829 42.5017,-28.82702 95.2801,-94.76382 121.8043,-152.17205 12.7531,-27.60232 38.5372,-104.79472 35.8601,-107.35783 -1.0725,-1.02694 -30.8787,-11.75814 -66.2358,-23.84714 -35.3572,-12.089 -65.405,-23.03949 -66.7731,-24.33443 -1.379,-1.30546 3.5298,-12.00846 11.0178,-24.02243 7.4278,-11.91737 15.9741,-29.60109 18.9919,-39.29712 5.7756,-18.55714 12.4017,-83.0282 10.5398,-102.55171 l -1.0946,-11.47749 14.3734,1.61398 c 7.9053,0.88768 42.6591,4.15322 77.2305,7.25674 34.5714,3.10354 68.0443,6.32888 74.3841,7.16748 l 11.5271,1.52469 7.5999,-23.65414 c 14.8459,-46.20637 19.9229,-100.20369 16.2261,-172.57557 -2.5513,-49.94563 -9.3292,-82.38998 -24.6802,-118.13752 -26.7143,-62.20928 -56.776,-100.00097 -115.6609,-145.401884 -4.2803,-3.300114 -21.9992,6.143286 -142.1765,75.774 -116.5047,67.502854 -137.1234,80.408974 -136.2081,85.258254 0.5933,3.14286 5.827,21.14286 11.6305,40 5.8036,18.85715 12.3812,47.14286 14.6169,62.85715 5.4084,38.01397 5.2853,113.23328 -0.2503,152.92162 -8.0144,57.46049 -26.927,118.781 -47.2462,153.18615 -13.1311,22.23411 -51.6334,62.04988 -78.9325,81.62525 -21.9087,15.71006 -74.3277,44.00732 -76.8495,41.48549 -0.7099,-0.70986 4.029,-20.18526 10.5308,-43.27866 6.5019,-23.0934 10.9323,-42.87717 9.8455,-43.96394 -2.4723,-2.47203 -308.9303,-2.6408 -311.3994,-0.17143 -0.9924,0.99246 3.5979,20.61654 10.2005,43.60909 6.6028,22.99254 11.269,42.54054 10.3696,43.44003 -3.2889,3.2888 -60.3014,-28.67766 -84.4946,-47.3754 -39.6679,-30.65732 -61.2989,-56.03569 -79.129,-92.83715 -27.5691,-56.90294 -40.9872,-118.00357 -43.3091,-197.21245 -1.8381,-62.7058 2.689,-101.50026 17.8376,-152.85715 5.794,-19.64285 11.0757,-38.28571 11.7371,-41.42857 1.0172,-4.83386 -10.1506,-12.2904 -72.4835,-48.39577 -40.5273,-23.4748 -102.2909,-59.301028 -137.2526,-79.6138 l -63.5666,-36.932342 -19.687,16.1066 c -59.9737,49.066285 -97.0087,106.547942 -116.4867,180.797652 -6.5511,24.9724 -7.5037,35.0658 -8.7131,92.32338 -1.5208,71.99537 1.8922,105.23571 15.3389,149.38851 l 7.6449,25.1028 11.661,-1.51649 c 6.4135,-0.83408 40.5895,-4.09731 75.9467,-7.25165 35.3571,-3.15432 70.3928,-6.49595 77.8571,-7.42583 l 13.5715,-1.69072 0.056,35.26812 c 0.098,61.33874 6.2981,85.45934 32.4885,126.40157 l 10.3278,16.14486 -6.4365,2.31034 c -3.54,1.27066 -34.4007,11.81066 -68.5792,23.4222 -47.2112,16.03909 -62.1429,22.24114 -62.1429,25.81174 0,7.2128 27.9333,87.56409 37.1598,106.89169 30.0815,63.01451 85.6254,128.68117 132.334,156.45146 15.8554,9.42665 88.0171,41.92265 93.3634,42.04348 0.7857,0.0171 19.3001,-28.88634 41.1431,-64.23131 z m 446.0402,-587.12077 124.5899,-192.85715 -125.8867,-0.744 c -69.2376,-0.4092 -182.3972,-0.4092 -251.4658,0 l -125.5792,0.744 124.8649,193.52063 c 68.6757,106.43637 125.7699,193.22209 126.876,192.85715 1.1061,-0.36492 58.0765,-87.4492 126.6009,-193.52063 z"
       id="path133"
       transform="scale(0.26458333)" />
  </g>
</svg>
