<?xml version="1.0" encoding="UTF-8" standalone="no"?>
<svg
   xmlns:dc="http://purl.org/dc/elements/1.1/"
   xmlns:cc="http://creativecommons.org/ns#"
   xmlns:rdf="http://www.w3.org/1999/02/22-rdf-syntax-ns#"
   xmlns:svg="http://www.w3.org/2000/svg"
   xmlns="http://www.w3.org/2000/svg"
   xmlns:sodipodi="http://sodipodi.sourceforge.net/DTD/sodipodi-0.dtd"
   xmlns:inkscape="http://www.inkscape.org/namespaces/inkscape"
   width="210mm"
   height="297mm"
   viewBox="0 0 210 297"
   version="1.1"
   id="svg8"
   inkscape:version="1.0.2 (e86c8708, 2021-01-15)"
   sodipodi:docname="godseeker.svg">
  <defs
     id="defs2" />
  <sodipodi:namedview
     id="base"
     pagecolor="#ffffff"
     bordercolor="#666666"
     borderopacity="1.0"
     inkscape:pageopacity="0.0"
     inkscape:pageshadow="2"
     inkscape:zoom="0.7"
     inkscape:cx="400"
     inkscape:cy="560"
     inkscape:document-units="mm"
     inkscape:current-layer="layer1"
     inkscape:document-rotation="0"
     showgrid="false"
     inkscape:window-width="1920"
     inkscape:window-height="1080"
     inkscape:window-x="0"
     inkscape:window-y="0"
     inkscape:window-maximized="0" />
  <metadata
     id="metadata5">
    <rdf:RDF>
      <cc:Work
         rdf:about="">
        <dc:format>image/svg+xml</dc:format>
        <dc:type
           rdf:resource="http://purl.org/dc/dcmitype/StillImage" />
        <dc:title></dc:title>
      </cc:Work>
    </rdf:RDF>
  </metadata>
  <g
     inkscape:label="Layer 1"
     inkscape:groupmode="layer"
     id="layer1">
    <path
       id="path32-2"
       style="fill:none;stroke:#000000;stroke-width:0.264583px;stroke-linecap:butt;stroke-linejoin:miter;stroke-opacity:1"
       d="m 75.21726,236.23511 c 0,0 -1.25207,-0.52453 -1.88988,-0.75595 -6.10497,-2.21508 -12.43606,-3.77764 -18.52083,-6.04762 -4.86713,-1.81573 -9.80932,-3.54783 -14.3631,-6.04761 -5.23888,-2.87586 -10.37613,-6.12323 -14.74107,-10.20536 -6.35211,-5.94056 -12.1054,-12.76629 -16.2529704,-20.41072 -3.99008,-7.35415 -6.50857,-15.56856 -7.9375,-23.8125 C -0.48969036,157.40757 -0.04713036,145.49599 0.75595964,133.80357 1.1931096,127.43884 1.9650096,121.02093 3.7797596,114.90476 6.6035696,105.38783 10.77428,96.206837 15.875,87.690474 c 4.42873,-7.39437 9.91023,-14.188835 15.875,-20.410712 5.25827,-5.484918 11.33111,-10.15184 17.38691,-14.741073 4.84601,-3.672427 9.93675,-7.025043 15.11904,-10.205357 3.31674,-2.035445 6.84813,-3.701698 10.20536,-5.669642 4.3437,-2.546191 8.63804,-5.180669 12.85119,-7.9375 1.66696,-1.090756 3.39992,-2.106794 4.91369,-3.401786 2.77644,-2.375172 5.25276,-5.103976 7.55953,-7.9375 2.51539,-3.089789 6.80357,-9.8273805 6.80357,-9.8273805 0,0 4.53856,6.7988185 6.80357,9.8273805 2.1883,2.925985 4.78309,5.562328 7.55952,7.9375 1.51377,1.294992 3.24673,2.31103 4.91369,3.401786 4.21316,2.756831 8.5075,5.391309 12.85119,7.9375 3.35723,1.967944 6.88862,3.634197 10.20536,5.669642 5.18229,3.180314 10.27304,6.53293 15.11905,10.205357 6.0558,4.589233 12.12863,9.256155 17.3869,14.741073 5.96478,6.221877 11.44628,13.016342 15.875,20.410712 5.10072,8.516363 9.27143,17.697356 12.09524,27.214286 1.81476,6.11617 2.58665,12.53408 3.02381,18.89881 0.80309,11.69242 1.24564,23.604 -0.75595,35.15178 -1.42894,8.24394 -3.94742,16.45835 -7.9375,23.8125 -4.14757,7.64443 -9.90086,14.47016 -16.25298,20.41072 -4.36493,4.08213 -9.50218,7.3295 -14.74107,10.20536 -4.55378,2.49978 -9.49597,4.23188 -14.36309,6.04761 -6.08477,2.26998 -12.41587,3.83254 -18.52084,6.04762 -0.6378,0.23142 -1.88988,0.75595 -1.88988,0.75595 M 106.58929,55.562499 c 0,0 -7.14352,0.279258 -10.20536,1.889881 -3.78463,1.990832 -6.76361,5.471316 -9.07143,9.071428 -1.95773,3.053986 -3.08407,6.645082 -3.77976,10.205357 -0.77358,3.958843 -1.05662,8.119023 -0.37798,12.095239 0.70463,4.12847 2.08577,8.320426 4.53572,11.717256 2.19872,3.04852 5.23872,5.70077 8.69345,7.18155 2.91584,1.2498 9.4494,2.26786 9.4494,2.26786 v 0 l 0.75595,-0.37798 0.75596,0.37798 v 0 c 0,0 6.53357,-1.01806 9.4494,-2.26786 3.45473,-1.48078 6.49473,-4.13303 8.69346,-7.18154 2.44995,-3.39684 3.83108,-7.588796 4.53571,-11.717266 0.67864,-3.976216 0.3956,-8.136396 -0.37798,-12.095239 -0.69569,-3.560275 -1.82202,-7.151371 -3.77976,-10.205357 -2.30782,-3.600112 -5.28679,-7.080596 -9.07143,-9.071428 -3.06184,-1.610623 -10.20535,-1.889881 -10.20535,-1.889881 M 69.54762,196.16964 c 4.64005,1.40125 9.27737,3.52923 12.85119,6.80357 3.76204,3.44679 6.31588,8.15705 8.31548,12.85119 1.72465,4.04869 2.41731,8.49247 3.02381,12.85119 0.3824,2.74821 2.85973,7.0746 0.37797,8.31548 -2.48175,1.24088 -4.26195,-3.55456 -6.42559,-5.29167 -2.86938,-2.30373 -6.1711,-4.12435 -8.69345,-6.80357 -3.04241,-3.23162 -5.64536,-6.95686 -7.55953,-10.96131 -1.53014,-3.20105 -1.95871,-6.82103 -3.02381,-10.20535 -0.83724,-2.66032 -4.38724,-5.75902 -2.64583,-7.9375 0.79061,-0.98904 2.56762,0.0119 3.77976,0.37797 z m 74.08333,0 c -4.64004,1.40125 -9.27737,3.52923 -12.85119,6.80357 -3.76204,3.44679 -6.31588,8.15705 -8.31547,12.85119 -1.72465,4.04869 -2.41732,8.49247 -3.02381,12.85119 -0.3824,2.74821 -2.85974,7.0746 -0.37798,8.31548 2.48176,1.24088 4.26196,-3.55456 6.4256,-5.29167 2.86938,-2.30373 6.17109,-4.12435 8.69345,-6.80357 3.04241,-3.23162 5.64535,-6.95686 7.55952,-10.96131 1.53014,-3.20105 1.95871,-6.82103 3.02381,-10.20535 0.83725,-2.66032 4.38724,-5.75902 2.64583,-7.9375 -0.79061,-0.98904 -2.56762,0.0119 -3.77976,0.37797 z m -37.04166,59.72024 c 0,0 13.58434,-5.72809 19.65476,-9.82738 7.24909,-4.89524 13.95025,-10.75583 19.65476,-17.38691 3.32749,-3.86797 6.47171,-8.09368 8.31548,-12.85119 3.32327,-8.57511 4.38583,-18.01895 4.53571,-27.21428 0.1243,-7.62541 -0.0659,-15.64913 -3.02381,-22.67857 -2.85438,-6.78341 -8.15624,-12.44224 -13.60714,-17.38691 -4.86685,-4.41486 -10.53379,-8.13345 -16.63095,-10.58333 -5.96115,-2.39522 -18.89881,-3.77976 -18.89881,-3.77976 0,0 -12.69905,1.31529 -18.89881,3.77976 -6.1062,2.42728 -11.7641,6.16847 -16.63096,10.58333 -5.4509,4.94467 -10.75275,10.6035 -13.60714,17.38691 -2.95791,7.02944 -3.1481,15.05316 -3.02381,22.67857 0.14989,9.19533 1.21244,18.63917 4.53572,27.21428 1.84376,4.75751 4.98798,8.98322 8.31547,12.85119 5.70452,6.63108 12.40567,12.49167 19.65476,17.38691 6.07042,4.09929 19.65477,9.82738 19.65477,9.82738"
       sodipodi:nodetypes="csssssssssssssssscssssssssssssssssccsssssscccccssssssccsssssssssccsssssssssccssssssscsssssssc" />
    <path
       style="fill:#ff0000;stroke-width:1.42857"
       d="m -435.71429,969.53917 c -48.71389,-22.60334 -70.06703,-36.22501 -99.48693,-63.46508 -35.62008,-32.98086 -55.78468,-60.2252 -64.70614,-87.42436 -11.13109,-33.9357 -13.59346,-52.14132 -13.63252,-100.79259 -0.035,-43.56293 1.39287,-55.1061 9.37764,-75.81129 14.45102,-37.47274 64.74145,-86.26262 108.34873,-105.11587 14.16174,-6.12271 33.57521,-10.96419 58.32025,-14.54434 18.4148,-2.66428 19.4162,-2.66892 36.42857,-0.16905 37.92499,5.57287 56.8564,11.48753 78.57059,24.54748 20.40673,12.27359 29.34593,19.37692 49.016,38.94944 28.64444,28.5024 41.11367,49.60134 47.30027,80.03595 3.73594,18.3787 3.71849,84.21254 -0.0284,107.10768 -6.62367,40.47356 -15.4644,63.67629 -33.28261,87.35115 -9.87693,13.12335 -29.84189,35.08207 -36.08377,39.6872 -2.61539,1.92957 -5.62919,4.75601 -6.69733,6.281 -2.74413,3.9178 -26.18306,22.67255 -40.5872,32.47601 -12.66323,8.6186 -66.78806,35.82957 -73.81494,37.11009 -2.90726,0.52978 -8.25379,-1.21758 -19.0422,-6.22342 z m -28.59362,-61.67014 c 4.34242,-2.324 4.53237,-8.40276 0.73682,-23.57999 -1.96447,-7.85531 -3.5776,-15.5696 -3.58471,-17.14285 -0.007,-1.57326 -1.59489,-9.83445 -3.52839,-18.35819 -3.82337,-16.85529 -13.3708,-38.7226 -23.27302,-53.30426 -7.61261,-11.21005 -22.32695,-24.77908 -33.87183,-31.23534 -11.08781,-6.20066 -34.87791,-14.96269 -40.62574,-14.96269 -8.96754,0 -9.38037,8.74452 -1.06368,22.53059 3.08774,5.11836 6.58528,14.39787 9.33756,24.77399 5.51415,20.78834 8.23663,27.1317 18.21383,42.43807 10.37607,15.9183 22.14854,28.04067 39.82069,41.00425 7.85908,5.7651 15.82913,12.7924 17.71122,15.61622 4.25924,6.39038 12.38582,13.63688 15.29307,13.63688 1.20289,0 3.37826,-0.63751 4.83418,-1.41668 z m 103.33621,-2.83466 c 2.66311,-2.33824 6.38191,-6.56173 8.264,-9.38554 1.88209,-2.82382 9.85214,-9.85112 17.71123,-15.61622 17.67214,-12.96358 29.44461,-25.08595 39.82068,-41.00425 9.9772,-15.30637 12.69968,-21.64973 18.21383,-42.43807 2.75229,-10.37612 6.24983,-19.65563 9.33756,-24.77399 8.3167,-13.78607 7.90386,-22.53059 -1.06369,-22.53059 -5.74781,0 -29.53792,8.76203 -40.62572,14.96269 -11.54489,6.45626 -26.25923,20.02529 -33.87183,31.23534 -9.90222,14.58166 -19.44965,36.44897 -23.27303,53.30426 -1.9335,8.52374 -3.52127,16.78493 -3.52839,18.35819 -0.007,1.57325 -1.62024,9.28754 -3.58471,17.14285 -3.72644,14.9009 -3.60197,21.14062 0.46913,23.51615 4.03584,2.35497 7.08664,1.65814 12.13094,-2.77082 z"
       id="path85"
       transform="scale(0.26458333)" />
    <path
       style="fill:#ff0000;stroke-width:1.42857"
       d="m -437.33016,422.61333 c -7.85699,-1.76209 -17.61836,-4.75009 -21.69193,-6.64 -22.47318,-10.42637 -39.82881,-34.69352 -45.86328,-64.12739 -6.09852,-29.74632 0.93449,-67.47218 17.13919,-91.93647 7.03901,-10.62683 19.78386,-23.4716 28.15901,-28.37976 18.65127,-10.93037 63.33931,-10.95434 81.95646,-0.044 13.65494,8.00232 30.25275,28.34637 37.81025,46.3443 8.67315,20.65473 12.0967,52.65848 7.7967,72.88424 -4.74433,22.31578 -12.36287,37.12192 -26.20027,50.91857 -10.607,10.57575 -21.79843,16.44111 -39.12661,20.50605 -17.30427,4.05933 -23.65853,4.13473 -39.97952,0.47442 z"
       id="path87"
       transform="scale(0.26458333)" />
    <path
       style="fill:#00ff00;stroke-width:1.42857"
       d="m -577.85714,889.32099 c -91.21769,-29.20338 -129.63195,-51.71309 -171.65578,-100.58565 -46.20349,-53.73338 -67.23665,-112.34637 -70.03421,-195.16391 -1.36779,-40.49132 3.31652,-104.63962 9.59568,-131.40603 11.92554,-50.8355 42.09912,-112.85443 76.60965,-157.46384 12.41033,-16.04199 34.56412,-40.4361 46.51906,-51.22333 34.13497,-30.80083 81.73465,-65.34494 119.02115,-86.37621 49.75953,-28.0666 82.0196,-48.02655 96.50022,-59.7066 11.49237,-9.269726 29.15498,-29.770289 41.70986,-48.41162 5.66818,-8.416053 10.69362,-15.326767 11.16762,-15.357143 0.47402,-0.03038 3.94359,4.605486 7.71018,10.301914 12.8294,19.40265 26.20551,36.22975 36.57687,46.013564 14.27074,13.462295 49.248,35.885935 104.63561,67.081045 37.99259,21.39799 80.45394,52.16088 119.15986,86.33031 10.49757,9.26722 34.29387,35.5165 46.48927,51.28151 34.546185,44.65789 64.734443,106.69186 76.6607,157.5304 9.307328,39.67476 12.583257,127.21183 6.494771,173.54889 -6.350057,48.32782 -24.012428,95.72784 -48.2685,129.53687 -37.572361,52.36975 -80.541811,84.57938 -144.606301,108.39593 -17.76428,6.60404 -71.82773,24.21005 -74.34268,24.21005 -0.53259,0 4.12355,-5.37924 10.34698,-11.95385 40.96654,-43.27833 54.73736,-81.56015 57.10962,-158.76043 1.72915,-56.27133 -5.94195,-88.32983 -28.3723,-118.57143 -10.08958,-13.60322 -38.11686,-41.02282 -52.33405,-51.19934 -25.83281,-18.49089 -44.68191,-27.04583 -72.40757,-32.86323 -31.7708,-6.66617 -43.45286,-7.50125 -64.40364,-4.60383 -25.2536,3.49247 -47.9042,9.41023 -62.88037,16.4283 -36.36953,17.04334 -79.00787,55.4013 -97.47405,87.6888 -14.29351,24.99173 -18.06794,44.3647 -18.00352,92.40644 0.0478,35.7545 1.37707,51.35847 6.4768,76.03689 7.80128,37.75163 21.28157,62.80247 50.28048,93.43783 6.22343,6.57461 10.44177,11.88551 9.3741,11.802 -1.06767,-0.0836 -13.51266,-3.85646 -27.65551,-8.3843 z m 180,-464.34186 c 19.09511,-4.18254 31.17855,-10.69477 43.01168,-23.18066 5.415,-5.71371 11.896,-14.2588 14.4022,-18.98907 10.25803,-19.3612 15.12375,-47.73791 11.99465,-69.95226 -4.64152,-32.95131 -14.5149,-53.7712 -34.62713,-73.01775 -15.62816,-14.95552 -26.04346,-18.41082 -55.49569,-18.41082 -31.28524,0 -40.17941,3.33202 -58.62947,21.9643 -22.12374,22.34224 -31.87191,48.63417 -31.8462,85.89284 0.0114,16.8759 0.49921,20.88746 3.90203,32.10445 5.37617,17.72194 11.33478,28.26033 22.84767,40.40831 11.68257,12.32703 23.83926,18.96587 42.2974,23.09887 15.75251,3.52717 26.31949,3.54769 42.14286,0.0819 z"
       id="path89"
       transform="scale(0.26458333)" />
  </g>
</svg>
