<?xml version="1.0" encoding="UTF-8" standalone="no"?>
<svg
   xmlns:dc="http://purl.org/dc/elements/1.1/"
   xmlns:cc="http://creativecommons.org/ns#"
   xmlns:rdf="http://www.w3.org/1999/02/22-rdf-syntax-ns#"
   xmlns:svg="http://www.w3.org/2000/svg"
   xmlns="http://www.w3.org/2000/svg"
   xmlns:sodipodi="http://sodipodi.sourceforge.net/DTD/sodipodi-0.dtd"
   xmlns:inkscape="http://www.inkscape.org/namespaces/inkscape"
   width="210mm"
   height="297mm"
   viewBox="0 0 210 297"
   version="1.1"
   id="svg8"
   inkscape:version="1.0.2 (e86c8708, 2021-01-15)"
   sodipodi:docname="Knight.svg">
  <defs
     id="defs2" />
  <sodipodi:namedview
     id="base"
     pagecolor="#ffffff"
     bordercolor="#666666"
     borderopacity="1.0"
     inkscape:pageopacity="0.0"
     inkscape:pageshadow="2"
     inkscape:zoom="0.45898254"
     inkscape:cx="315.40707"
     inkscape:cy="429.30889"
     inkscape:document-units="mm"
     inkscape:current-layer="layer1"
     inkscape:document-rotation="0"
     showgrid="false"
     inkscape:window-width="1252"
     inkscape:window-height="942"
     inkscape:window-x="0"
     inkscape:window-y="25"
     inkscape:window-maximized="0" />
  <metadata
     id="metadata5">
    <rdf:RDF>
      <cc:Work
         rdf:about="">
        <dc:format>image/svg+xml</dc:format>
        <dc:type
           rdf:resource="http://purl.org/dc/dcmitype/StillImage" />
        <dc:title></dc:title>
      </cc:Work>
    </rdf:RDF>
  </metadata>
  <g
     inkscape:label="Layer 1"
     inkscape:groupmode="layer"
     id="layer1">
    <path
       style="fill:none;stroke:#000000;stroke-width:0.193919px;stroke-linecap:butt;stroke-linejoin:miter;stroke-opacity:1"
       d="m 122.1582,235.18061 c -1.50506,-2.43977 -2.07991,-5.4136 -2.40082,-8.26537 -0.4372,-3.88512 -0.20172,-7.90238 0.68595,-11.70928 0.93426,-4.00675 2.84149,-7.751 4.80164,-11.36489 1.85029,-3.41134 3.759,-6.91853 6.51651,-9.64292 2.82531,-2.79141 6.19096,-5.27011 9.94626,-6.54343 3.04058,-1.03097 6.48882,-1.46618 9.60329,-0.68878 3.14005,0.78379 5.89653,2.9166 8.23138,5.16586 1.89925,1.82963 3.47608,4.09168 4.45868,6.54342 1.29809,3.23896 1.76164,6.84061 1.71487,10.3317 -0.0564,4.20973 -1.12929,8.38625 -2.40082,12.39807 -1.17933,3.72088 -2.59054,7.46397 -4.80165,10.67611 -2.20633,3.20519 -5.03279,6.05951 -8.23139,8.26536 -2.78445,1.92025 -5.92425,3.60045 -9.2603,4.13269 -3.29183,0.5252 -6.90865,0.34453 -9.94627,-1.03317 -3.68661,-1.67204 -6.78716,-4.81225 -8.91733,-8.26537 z"
       id="path945"
       sodipodi:nodetypes="aaaaaaaaaaaaaaaa" />
    <path
       style="fill:none;stroke:#000000;stroke-width:0.193919px;stroke-linecap:butt;stroke-linejoin:miter;stroke-opacity:1"
       d="m 74.484747,139.78444 c -5.275526,0.54616 -10.535457,1.25365 -15.776826,2.06634 -3.213643,0.49828 -6.351606,1.74075 -9.603289,1.72195 -2.443943,-0.014 -5.10529,-0.11741 -7.202464,-1.37756 -2.650558,-1.59267 -4.601391,-4.38672 -5.830564,-7.2322 -1.653492,-3.82777 -1.962623,-8.23312 -1.714872,-12.39805 0.267842,-4.50279 1.500635,-9.01315 3.429745,-13.08684 2.248729,-4.74864 6.381572,-8.35014 9.260309,-12.742458 1.606039,-2.45044 3.688291,-4.74691 4.458671,-7.57658 0.45221,-1.66101 1.073039,-3.82267 0,-5.165865 -1.319062,-1.65115 -4.099659,-0.998006 -6.173544,-1.377557 -0.795292,-0.14556 -1.920545,0.308554 -2.400818,-0.344391 -1.306482,-1.776223 0.899079,-4.339114 1.028919,-6.543422 0.175641,-2.981714 1.586788,-6.681062 -0.342973,-8.954152 -1.134528,-1.336382 -3.415973,-1.299248 -5.144618,-1.033172 -3.995323,0.614964 -7.439462,3.365674 -10.632208,5.854637 -3.833418,2.988416 -7.02375,6.78566 -9.946263,10.676109 -2.408622,3.206363 -4.37066,6.746603 -6.173536,10.331723 -2.679661,5.3286 -5.478938,10.724488 -6.85949,16.530728 -1.43758,6.04609 -2.13697,12.42873 -1.371899,18.59709 0.893615,7.20472 3.515707,14.22606 6.859489,20.66343 2.833843,5.45565 7.65825,9.63499 10.975182,14.80879 2.049617,3.19702 4.186418,6.41667 5.487598,9.98733 1.602542,4.39764 1.975664,9.15675 2.743791,13.77562 1.272962,7.65448 1.871885,15.41017 3.086772,23.07415 0.694394,4.38054 1.076834,8.8551 2.400819,13.08684 1.242089,3.96998 3.018034,7.79327 5.144618,11.36489 3.097648,5.20253 6.434635,10.47016 10.975188,14.4644 3.466477,3.04939 7.768897,5.06316 12.004101,6.88782 5.484431,2.36284 11.302502,3.96178 17.148725,5.16585 4.959425,1.02142 10.042476,1.34061 15.090878,1.72196 3.080184,0.23266 9.260312,0.34438 9.260312,0.34438 v 0 l -0.68595,10e-6 v 0 c 0,0 6.18013,-0.11173 9.26031,-0.34439 5.0484,-0.38135 10.13146,-0.70053 15.09088,-1.72196 5.84622,-1.20406 11.66428,-2.80301 17.14872,-5.16585 4.23521,-1.82465 8.53763,-3.83842 12.00411,-6.88781 4.54055,-3.99425 7.87753,-9.26188 10.97518,-14.46439 2.12659,-3.57163 3.90253,-7.39492 5.14462,-11.3649 1.32399,-4.23175 1.70642,-8.7063 2.40082,-13.08684 1.21488,-7.66398 1.81381,-15.41967 3.08677,-23.07416 0.76814,-4.61885 1.14125,-9.37797 2.74379,-13.77562 1.30118,-3.57066 3.43799,-6.7903 5.48759,-9.98732 3.31694,-5.1738 8.14134,-9.35314 10.97519,-14.80879 3.34379,-6.43738 5.96588,-13.45871 6.8595,-20.66344 0.76507,-6.16836 0.0657,-12.551 -1.37191,-18.59709 -1.38054,-5.80624 -4.17983,-11.202128 -6.85948,-16.530728 -1.80289,-3.58511 -3.76492,-7.12535 -6.17354,-10.331723 -2.92251,-3.890449 -6.11285,-7.68769 -9.94627,-10.676106 -3.19274,-2.488963 -6.63688,-5.239673 -10.63221,-5.854638 -1.72863,-0.266075 -4.01008,-0.30321 -5.14461,1.033173 -1.92977,2.273089 -0.51861,5.972439 -0.34298,8.954152 0.12985,2.204305 2.33541,4.767196 1.02893,6.543419 -0.48028,0.652955 -1.60553,0.198842 -2.40082,0.344391 -2.07389,0.379551 -4.85449,-0.273593 -6.17355,1.377557 -1.07304,1.343205 -0.4522,3.504855 0,5.165865 0.77039,2.82967 2.85263,5.12614 4.45868,7.57658 2.87873,4.392328 7.01158,7.993828 9.2603,12.742468 1.92912,4.07369 3.16191,8.58405 3.42975,13.08683 0.24775,4.16493 -0.0614,8.57028 -1.71488,12.39806 -1.22916,2.84548 -3.18,5.63953 -5.83056,7.23219 -2.09718,1.26016 -4.75852,1.36344 -7.20247,1.37757 -3.25167,0.0188 -6.38963,-1.22368 -9.60328,-1.72196 -5.24136,-0.81269 -10.50084,-1.52473 -15.77683,-2.06634 -10.03591,-1.03027 -11.07245,-2.2503 -30.1817,-2.24861 -19.109253,0.002 -19.687601,1.23318 -29.495853,2.24861 z"
       id="path943-0"
       sodipodi:nodetypes="aaaaaaaaaaaaaaaaaaaaaaaaaaaaaaaccccaaaaaaaaaaaaaaaaaaaaaaaaaaaaaaaca" />
    <path
       style="fill:none;stroke:#000000;stroke-width:0.193919px;stroke-linecap:butt;stroke-linejoin:miter;stroke-opacity:1"
       d="m 86.488853,235.1806 c 1.50506,-2.43977 2.079905,-5.41359 2.400819,-8.26537 0.437201,-3.88511 0.201716,-7.90238 -0.685946,-11.70928 -0.934268,-4.00674 -2.841493,-7.75099 -4.801644,-11.36488 -1.850293,-3.41134 -3.759004,-6.91854 -6.516516,-9.64294 -2.825308,-2.7914 -6.190952,-5.2701 -9.946256,-6.54342 -3.040575,-1.03096 -6.488825,-1.46618 -9.603289,-0.68877 -3.140048,0.78378 -5.896537,2.91659 -8.231389,5.16584 -1.899239,1.82965 -3.476073,4.09169 -4.458665,6.54343 -1.2981,3.23896 -1.761639,6.84061 -1.714872,10.3317 0.05639,4.20972 1.129283,8.38625 2.400818,12.39808 1.179334,3.72088 2.59054,7.46396 4.801645,10.6761 2.206322,3.20519 5.0328,6.05952 8.23139,8.26537 2.784443,1.92025 5.924249,3.60044 9.260308,4.13268 3.291823,0.52521 6.908642,0.34454 9.946263,-1.03317 3.686601,-1.67204 6.787153,-4.81225 8.917334,-8.26537 z"
       id="path945-2"
       sodipodi:nodetypes="aaaaaaaaaaaaaaaa" />
    <path
       style="fill:#ff0000;stroke-width:2.17873"
       d="m 356.80298,991.34907 c -35.7736,-2.52689 -62.85195,-7.61486 -93.14897,-17.50254 -49.66475,-16.20848 -73.8689,-33.08054 -96.68329,-67.39531 -31.95998,-48.07052 -34.68404,-56.90935 -47.67435,-154.68998 -4.2187,-31.75502 -9.09115,-65.57983 -10.82767,-75.16625 -4.42373,-24.4212 -18.393428,-51.09478 -42.843482,-81.8049 -22.112578,-27.77415 -37.861355,-57.35086 -45.870637,-86.14653 -3.933142,-14.14077 -4.773493,-22.72535 -4.673613,-47.74305 0.138738,-34.75067 3.815347,-52.21037 17.354822,-82.41563 27.375581,-61.07229 59.910721,-102.02807 97.29449,-122.47594 11.71305,-6.40671 27.3045,-8.04159 32.8443,-3.44396 4.76987,3.95864 4.75013,22.42923 -0.0432,40.41799 -4.85725,18.22867 -3.60393,20.85312 9.95851,20.85312 5.95111,0 13.4577,1.00277 16.6813,2.22838 5.50086,2.09142 5.79717,2.89364 4.82104,13.0524 -1.17671,12.2463 -8.2911,24.22618 -32.52585,54.77007 -23.70574,29.87715 -32.34092,53.36543 -32.34092,87.96954 0,22.567 3.71066,37.58339 12.50448,50.60345 8.74385,12.94609 16.17606,17.86116 30.94104,20.46195 11.0106,1.93949 16.68093,1.58388 35.48509,-2.2254 12.30924,-2.49356 45.91074,-7.67859 74.67001,-11.52229 47.49035,-6.34715 57.58872,-6.99464 110.02597,-7.05484 52.92465,-0.0608 62.27579,0.52869 112.2047,7.07275 29.95757,3.92647 63.78239,9.08396 75.16626,11.46111 35.70134,7.45501 52.69063,2.77989 66.93734,-18.41989 12.65338,-18.82882 16.46187,-44.99465 10.85516,-74.57932 -4.62107,-24.38394 -13.3202,-41.81678 -33.98804,-68.11137 -21.63516,-27.52521 -27.89958,-37.97003 -29.76279,-49.62424 -1.24746,-7.80269 -0.77262,-9.43676 3.64033,-12.52771 3.12603,-2.18955 9.46102,-3.55459 16.49647,-3.55459 14.30425,0 17.39824,-4.01238 12.9079,-16.73936 -3.70786,-10.50918 -6.52339,-33.85105 -4.75517,-39.42223 1.82944,-5.76405 10.70694,-9.35806 19.20615,-7.77551 20.16678,3.75506 53.52043,29.83299 75.73186,59.21182 6.04167,7.99126 18.18649,28.7458 26.9885,46.12119 23.83019,47.04138 29.64945,68.23217 29.64945,107.96802 0,44.09155 -16.40123,87.90431 -47.2608,126.24821 -21.28072,26.4419 -35.8533,50.04327 -41.70119,67.53817 -4.1256,12.34245 -7.97152,36.50509 -21.0133,132.02022 -3.04247,22.28242 -7.09901,45.81273 -9.01449,52.28958 -7.91466,26.7618 -32.12161,67.78397 -53.0413,89.88609 -40.71061,43.01168 -140.70191,67.54778 -245.19612,60.16678 z M 295.20016,920.8568 c 30.09576,-14.67415 45.20934,-45.49641 42.33241,-86.33167 -1.46517,-20.79698 -5.7147,-34.86546 -17.76043,-58.79783 -17.85166,-35.46754 -32.74974,-51.97934 -57.74401,-63.99865 -12.22761,-5.88005 -16.54224,-6.81015 -31.59161,-6.81015 -14.95784,0 -18.831,0.82374 -27.30911,5.80809 -13.08087,7.69031 -29.61417,25.62531 -35.38289,38.38263 -3.52215,7.78912 -4.8585,15.84597 -5.51926,33.27554 -0.74793,19.72886 -0.053,26.07775 4.88878,44.66401 7.73826,29.10396 18.63078,50.47852 33.64614,66.02436 14.05066,14.54707 27.17008,23.48388 42.74873,29.12002 13.94765,5.04605 39.98172,4.37302 51.69125,-1.33635 z m 259.91474,-3.31051 c 19.86549,-9.7005 42.98708,-32.75116 52.65257,-52.49098 15.3376,-31.32406 23.02325,-71.86911 18.35133,-96.81122 -4.96812,-26.52332 -21.84848,-48.69209 -45.2259,-59.39463 -10.68466,-4.8916 -14.15374,-5.44354 -27.2913,-4.34215 -21.79978,1.82763 -36.18397,9.20704 -54.9203,28.17543 -12.3518,12.50475 -18.1722,20.82125 -27.83799,39.77646 -6.72154,13.18133 -13.3677,27.56959 -14.76923,31.97389 -4.27478,13.43346 -6.14422,39.0502 -4.08493,55.97555 2.32939,19.1455 8.79031,32.73816 21.73019,45.71651 15.84178,15.88893 26.37297,19.97185 49.80395,19.30893 13.65148,-0.38622 18.92643,-1.70327 31.59161,-7.88779 z"
       id="path81"
       transform="scale(0.26458333)" />
  </g>
</svg>
