<?xml version="1.0" encoding="UTF-8" standalone="no"?>
<svg
   xmlns:dc="http://purl.org/dc/elements/1.1/"
   xmlns:cc="http://creativecommons.org/ns#"
   xmlns:rdf="http://www.w3.org/1999/02/22-rdf-syntax-ns#"
   xmlns:svg="http://www.w3.org/2000/svg"
   xmlns="http://www.w3.org/2000/svg"
   xmlns:sodipodi="http://sodipodi.sourceforge.net/DTD/sodipodi-0.dtd"
   xmlns:inkscape="http://www.inkscape.org/namespaces/inkscape"
   width="210mm"
   height="297mm"
   viewBox="0 0 210 297"
   version="1.1"
   id="svg8"
   inkscape:version="1.0.2 (e86c8708, 2021-01-15)"
   sodipodi:docname="shield.svg">
  <defs
     id="defs2" />
  <sodipodi:namedview
     id="base"
     pagecolor="#ffffff"
     bordercolor="#666666"
     borderopacity="1.0"
     inkscape:pageopacity="0.0"
     inkscape:pageshadow="2"
     inkscape:zoom="0.81754123"
     inkscape:cx="156.04502"
     inkscape:cy="509.47891"
     inkscape:document-units="mm"
     inkscape:current-layer="layer1"
     inkscape:document-rotation="0"
     showgrid="false"
     inkscape:window-width="1920"
     inkscape:window-height="945"
     inkscape:window-x="0"
     inkscape:window-y="25"
     inkscape:window-maximized="0"
     showguides="true"
     inkscape:guide-bbox="true" />
  <metadata
     id="metadata5">
    <rdf:RDF>
      <cc:Work
         rdf:about="">
        <dc:format>image/svg+xml</dc:format>
        <dc:type
           rdf:resource="http://purl.org/dc/dcmitype/StillImage" />
        <dc:title></dc:title>
      </cc:Work>
    </rdf:RDF>
  </metadata>
  <g
     inkscape:label="Layer 1"
     inkscape:groupmode="layer"
     id="layer1">
    <path
       id="path82-0"
       style="fill:none;stroke:#000000;stroke-width:0.264583px;stroke-linecap:butt;stroke-linejoin:miter;stroke-opacity:1"
       d="m -126.68778,176.0698 c 0,0 -2.0478,6.97811 -3.20723,10.42351 -1.24052,3.68633 -1.81523,7.74634 -4.00905,10.95805 -1.13925,1.66785 -4.54358,4.00905 -4.54358,4.00905 0,0 -0.21617,-8.15197 -1.87088,-11.75986 -1.89742,-4.13707 -4.99646,-7.95432 -8.8199,-10.42351 -2.72422,-1.75931 -6.11176,-2.71256 -9.35443,-2.6727 -2.98661,0.0367 -6.0437,1.05207 -8.55263,2.6727 -2.7034,1.74625 -4.97034,4.34013 -6.41447,7.21627 -1.18386,2.3578 -2.31895,5.21132 -1.60362,7.75083 0.52976,1.88069 2.12577,3.75577 4.00905,4.2763 1.87542,0.51839 4.0843,-0.3994 5.61266,-1.60361 1.84881,-1.45668 1.8188,-4.47427 3.4745,-6.1472 1.37588,-1.39017 3.12894,-2.77779 5.07812,-2.93996 1.51713,-0.12623 3.10992,0.6253 4.27632,1.60362 1.74426,1.46301 2.588,3.78303 3.4745,5.87993 1.18664,2.80681 2.40543,8.81989 2.40543,8.81989 l -10.42351,-0.80181 c 0,0 0.37194,3.61744 1.33634,5.07813 1.67903,2.54306 4.34714,4.58584 7.21628,5.61265 3.18855,1.14111 6.86244,1.05456 10.15624,0.26727 3.64441,-0.8711 7.47935,-2.47586 9.88898,-5.34539 2.8987,-3.45199 3.6629,-8.36323 4.27631,-12.82894 0.49765,-3.62301 -0.0754,-7.32997 -0.53454,-10.95805 -0.38831,-3.06811 -1.87089,-9.08717 -1.87089,-9.08717 z m 14.69982,-26.99422 c -1.83922,-4.20121 -3.23247,-8.64148 -5.61266,-12.56166 -2.00744,-3.30628 -7.21627,-9.08717 -7.21627,-9.08717 l 15.73282,-16.5707 15.732817,16.57071 c 0,0 -5.20883,5.78089 -7.216277,9.08716 -2.38018,3.92017 -3.77343,8.36045 -5.61266,12.56167 -1.63274,3.72956 -2.90388,7.75082 -2.90388,7.75082 0,0 -1.27115,-4.02127 -2.90389,-7.75083 z m -24.87736,-117.955652 2.64583,5.197174 -4.34672,2.55134 -6.04762,3.968749 6.42559,9.827386 6.04762,-3.40179 -2.64583,-4.157739 3.59077,-3.874255 4.34673,9.165924 0.75595,1.5119 c 0,0 -4.63322,1.74022 -6.80357,2.91311 -2.26218,1.22251 -6.42559,4.26844 -6.42559,4.26844 l -10.58334,-13.607143 -6.80357,5.291663 -9.07143,7.9375 11.71726,7.74852 4.45744,-4.22259 -3.5125,-3.62042 2.89968,-4.39536 5.98277,8.15891 c -4.52627,3.64552 -7.16579,6.66213 -9.44941,9.560108 l -13.98512,-9.827378 c 0,0 -5.50039,4.77017 -7.5271,7.745728 -1.90779,2.80094 -4.19016,9.2632 -4.19016,9.2632 l 15.11904,4.53571 2.86725,-5.7155 -5.2296,-2.31649 1.30949,-5.35374 8.99037,5.44823 -3.02381,5.95313 -2.26786,6.14211 -12.5492,-2.222 -12.39723,-2.31372 c 0,0 3.79715,-10.1923 6.42559,-14.930048 1.82269,-3.28539 6.4256,-9.26042 6.4256,-9.26042 l -13.98512,-10.205358 c 0,0 4.12404,-6.726589 6.69008,-9.700459 3.29826,-3.822461 11.0748,-10.332278 11.0748,-10.332278 l 10.20536,10.961309 -8.69346,8.315476 -2.45684,-4.630208 4.63021,-3.401786 -5.19717,-4.441221 c -8.14367,7.56727 -7.54041,8.070605 -9.35492,10.866816 l 11.67141,8.507249 c 0,0 6.74402,-6.254756 10.39157,-9.044569 4.64184,-3.550294 9.74886,-6.447964 14.57108,-9.749099 2.45321,-1.679393 7.30568,-5.116111 7.30568,-5.116111 z m 14.17411,226.407722 c -6.21816,-2.21555 -12.30153,-4.86291 -18.14286,-7.9375 -5.90903,-3.11021 -11.42135,-6.92696 -17.00893,-10.58333 -8.18802,-5.35802 -16.59855,-10.45724 -24.19048,-16.63094 -6.22237,-5.05998 -12.25406,-10.46853 -17.3869,-16.63095 -3.37706,-4.05444 -5.80266,-8.42881 -7.35711,-13.22917 -1.48542,-4.58717 -1.71432,-14.36311 -1.71432,-14.36311 0,0 -2.40743,-105.062245 0,-157.994028 0.10665,-2.344996 0.81071,-4.723161 1.98159,-6.757716 0.61695,-1.072024 1.35008,-2.408604 2.55412,-2.69169 8.47731,-1.9931215 18.853,-3.1316925 28.34822,-4.1577385 10.79879,-1.166908 21.66086,-1.668336 32.50595,-2.267857 12.33867,-0.682086 34.01786,-0.442827 34.01786,-0.442827 0,0 21.679187,-0.239259 34.017847,0.442827 10.8451,0.599521 21.70716,1.100949 32.50596,2.267857 9.49522,1.026046 19.8709,2.164617 28.34821,4.1577385 1.20404,0.283086 1.93717,1.619666 2.55412,2.69169 1.17089,2.034555 1.8749396,4.41272 1.9815996,6.757716 2.40742,52.931793 0,157.994038 0,157.994038 0,0 0.0719,9.97113 -1.4470596,14.63037 -1.55371,4.7658 -4.24732,8.90746 -7.62437,12.9619 -5.13285,6.16242 -11.16453,11.57096 -17.38691,16.63095 -7.59193,6.1737 -16.00246,11.27293 -24.19047,16.63095 -5.58759,3.65636 -11.0999,7.47311 -17.00893,10.58333 -5.84133,3.07458 -11.9247,5.72195 -18.14286,7.93749 -5.298387,1.88783 -13.673957,4.13483 -13.673957,4.13483 0,0 -8.24193,-2.247 -13.54032,-4.13483 z m 0.75595,-13.60713 c -7.71898,-3.15618 -15.18939,-6.98329 -22.30059,-11.33929 -8.76786,-5.37081 -17.09652,-11.50211 -24.94644,-18.14285 -6.86998,-5.81176 -10.77049,-8.80973 -16.87135,-15.42432 -2.00148,-2.17001 -6.84459,-7.59464 -8.07507,-10.27807 -1.27777,-2.78652 -1.36739,-6.00932 -1.51191,-9.07143 -2.37957,-50.41884 -4.48085,-100.670205 -0.33212,-152.591663 0.15708,-1.965822 0.75285,-4.738722 2.64583,-5.291667 7.4649,-2.180511 18.30018,-4.12502 27.59226,-5.291665 19.27152,-2.419587 39.04226,-2.074391 56.91785,-3.245222 17.875587,1.170831 37.111777,0.825635 56.383297,3.245222 9.29208,1.166645 20.12737,3.111154 27.59226,5.291665 1.89298,0.552945 2.48876,3.325845 2.64583,5.291667 4.14873,51.921458 2.04745,102.172833 -0.33212,152.591673 -0.14451,3.06211 -0.23413,6.28491 -1.5119,9.07143 -1.23049,2.68342 -6.0736,8.90987 -8.07507,11.07988 -6.10086,6.61459 -10.00138,8.81074 -16.87136,14.6225 -7.84992,6.64075 -16.17857,12.77205 -24.94643,18.14285 -7.1112,4.35601 -14.58161,8.18312 -22.30059,11.33929 -4.647277,1.9002 -12.918007,4.06799 -12.918007,4.06799 0,0 -8.13709,-2.16779 -12.78437,-4.06799 z m 12.85119,-223.005948 -29.48214,0.377976 29.48214,49.514877 29.482137,-49.514877 -29.482137,-0.377976 m 17.603707,155.155238 c 0,0 2.04779,6.97811 3.20723,10.42351 1.24052,3.68633 1.81523,7.74634 4.00904,10.95805 1.13926,1.66785 4.54359,4.00905 4.54359,4.00905 0,0 0.21617,-8.15197 1.87088,-11.75986 1.89742,-4.13707 4.99646,-7.95432 8.8199,-10.42351 2.72421,-1.75931 6.11176,-2.71256 9.35443,-2.6727 2.98661,0.0367 6.04369,1.05207 8.55263,2.6727 2.7034,1.74625 4.97033,4.34012 6.41446,7.21627 1.18387,2.3578 2.31895,5.21132 1.60362,7.75082 -0.52976,1.8807 -2.12577,3.75576 -4.00904,4.27631 -1.87543,0.51838 -4.08431,-0.39941 -5.61266,-1.60361 -1.84881,-1.45668 -1.8188,-4.47428 -3.47451,-6.1472 -1.37587,-1.39018 -3.12893,-2.77779 -5.07812,-2.93997 -1.51712,-0.12623 -3.10991,0.6253 -4.27631,1.60362 -1.74426,1.46301 -2.588,3.78303 -3.4745,5.87993 -1.18664,2.80681 -2.40543,8.81989 -2.40543,8.81989 l 10.42351,-0.80181 c 0,0 -0.37194,3.61744 -1.33634,5.07813 -1.67903,2.54306 -4.34714,4.58585 -7.21628,5.61265 -3.18855,1.14111 -6.86244,1.05456 -10.15624,0.26727 -3.64442,-0.8711 -7.47935,-2.47585 -9.88898,-5.34539 -2.89871,-3.45198 -3.66291,-8.36323 -4.27631,-12.82893 -0.49765,-3.62301 0.0754,-7.32997 0.53454,-10.95805 0.38831,-3.06811 1.87089,-9.08717 1.87089,-9.08717 z m -10.423507,55.05753 9.087157,-2.40543 c 0,0 -4.68945,-3.93098 -6.41447,-6.41447 -1.955887,-2.81588 -3.498427,-6.01533 -4.276307,-9.35443 -1.39529,-5.98941 -0.84992,-12.29991 -0.53454,-18.4416 0.31339,-6.1029 0.13311,-12.50157 2.40542,-18.17433 1.51738,-3.78806 4.953987,-6.49282 7.216277,-9.88897 1.90587,-2.86109 4.19689,-5.57965 5.34539,-8.81989 1.53217,-4.32267 1.87089,-13.63075 1.87089,-13.63075 l 13.89801,19.77795 c 0,0 7.40139,-0.61471 10.95806,-1.60362 2.88534,-0.80225 8.28535,-3.4745 8.28535,-3.4745 l -22.71791,-26.72696 3.74177,-4.81085 28.86511,22.18337 c 0,0 4.37906,-5.99114 5.87993,-9.35443 1.58585,-3.55371 3.20724,-11.22532 3.20724,-11.22532 l -33.94323,-13.09621 2.67269,-6.1472 35.81412,2.40543 c 0.45782,-5.5112 0.73742,-11.20062 -1.60362,-19.510675 l -45.16855,3.47451 c 0,0 0.54464,4.950255 -0.26727,7.216265 -0.79334,2.2142 -2.43356,4.15103 -4.27631,5.61266 -2.21825,1.75947 -4.93824,3.14929 -7.75082,3.47451 -2.79442,0.32312 -5.91017,-0.0964 -8.28535,-1.60362 -2.422357,-1.53715 -3.996717,-4.29171 -5.078117,-6.94901 -0.94983,-2.33397 -1.25306,-4.970425 -1.06908,-7.483535 0.18318,-2.5021 0.76437,-5.11706 2.13816,-7.21628 1.21178,-1.85168 3.058307,-3.37216 5.078117,-4.27632 1.72494,-0.77216 5.61266,-0.80181 5.61266,-0.80181 0,0 -3.688,-4.39246 -6.01357,-6.01356 -1.6357,-1.14021 -3.557447,-1.82516 -5.431817,-2.50512 -1.96725,-0.71366 -6.42559,-1.63756 -6.42559,-1.63756 0,0 -4.45834,0.92389 -6.4256,1.63756 -1.87436,0.67996 -3.79611,1.36491 -5.43181,2.50512 -2.32557,1.62109 -6.01357,6.01356 -6.01357,6.01356 0,0 3.88772,0.0296 5.61266,0.80181 2.01981,0.90416 3.86634,2.42464 5.07812,4.27631 1.37379,2.09923 1.95498,4.71418 2.13816,7.21628 0.18398,2.51312 -0.11926,5.149575 -1.06908,7.483545 -1.0814,2.6573 -2.65576,5.41186 -5.07812,6.94901 -2.37518,1.50721 -5.49093,1.92673 -8.28535,1.60363 -2.81259,-0.32523 -5.53257,-1.71505 -7.75082,-3.47453 -1.84275,-1.46162 -3.48297,-3.39846 -4.27631,-5.61266 -0.81191,-2.26601 -0.26727,-7.216255 -0.26727,-7.216255 l -45.16856,-3.47451 c -2.34104,8.310045 -2.06144,13.999475 -1.60362,19.510675 l 35.81413,-2.40543 2.67269,6.1472 -33.94323,13.09621 c 0,0 1.62138,7.67161 3.20723,11.22532 1.50087,3.36329 5.87993,9.35444 5.87993,9.35444 l 28.86511,-22.18338 3.74178,4.81086 -22.71792,26.72695 c 0,0 5.40002,2.67225 8.28536,3.4745 3.55667,0.98891 10.95805,1.60362 10.95805,1.60362 l 13.89802,-19.77796 c 0,0 0.33872,9.30808 1.87089,13.63076 1.1485,3.24023 3.43952,5.9588 5.34539,8.81988 2.26229,3.39615 5.6989,6.10091 7.21627,9.88897 2.27232,5.67277 2.09204,12.07143 2.40543,18.17433 0.31538,6.14169 0.86075,12.4522 -0.53454,18.4416 -0.77788,3.3391 -2.32042,6.53855 -4.27631,9.35444 -1.72502,2.48348 -6.41447,6.41446 -6.41447,6.41446 l 9.08716,2.40544 7.1802,6.949 z m 20.601047,-200.007412 -2.64584,5.197174 4.34673,2.55134 6.04762,3.968749 -6.4256,9.827381 -6.04761,-3.401785 2.64583,-4.157739 -3.59078,-3.874255 -4.34672,9.165922 -0.75595,1.511905 c 0,0 4.63322,1.740215 6.80357,2.913104 2.26217,1.222513 6.42559,4.268442 6.42559,4.268442 l 10.58334,-13.607142 6.80357,5.291666 9.07143,7.9375 -11.71727,7.748512 -4.45743,-4.222589 3.51249,-3.620416 -2.89967,-4.395364 -5.98277,8.158912 c 4.52626,3.645524 7.16578,6.662134 9.44941,9.56011 l 13.98512,-9.82738 c 0,0 5.50038,4.770176 7.5271,7.74573 1.90778,2.80095 4.19016,9.2632 4.19016,9.2632 l -15.11905,4.53571 -2.86725,-5.7155 5.2296,-2.31649 -1.30948,-5.35374 -8.99037,5.44823 3.02381,5.95313 2.26786,6.14211 12.54919,-2.222 12.39724,-2.31371 c 0,0 -3.79715,-10.19231 -6.4256,-14.930061 -1.82269,-3.285385 -6.42559,-9.260418 -6.42559,-9.260418 l 13.98511,-10.205357 c 0,0 -4.12404,-6.726589 -6.69008,-9.700459 -3.29825,-3.822461 -11.0748,-10.332278 -11.0748,-10.332278 l -10.20535,10.961309 8.69345,8.315476 2.45685,-4.630208 -4.63021,-3.401786 5.19717,-4.441221 c 8.14366,7.56727 7.5404,8.070605 9.35491,10.866816 l -11.67141,8.507246 c 0,0 -6.74401,-6.254753 -10.39156,-9.044566 -4.64184,-3.550294 -9.74886,-6.447964 -14.57108,-9.749099 -2.45321,-1.679393 -7.30568,-5.116111 -7.30568,-5.116111 z"
       sodipodi:nodetypes="csscssssssssssssccsssssscsscccsscsccccccccccscccccccccccsccccccccccsccsccccccccsscsssssaccsssscssssscassssscssssssscsscsscsssssscsccccccsscssssssssssssccsssssscccssssssccsccccsccccccsssssssscsscssccsssscssccccccsccccsccssssssccccccccccccccscccccccccccsccccccccccsccsccccccccssc" />
    <path
       style="fill:#ff0000;stroke-width:1.72984"
       d=""
       id="path197"
       transform="scale(0.26458333)" />
    <path
       style="fill:#ff0000;stroke-width:0.457687"
       d="M 104.14969,259.91359 C 101.1953,259.21722 88.520876,254.87243 84.366656,253.13197 76.240288,249.72733 70.020754,246.19926 55.402181,236.70175 39.821028,226.57883 35.265935,223.3187 28.349012,217.33942 18.891111,209.16362 12.796486,202.09744 9.853288,195.89529 6.372668,188.56056 6.183226,185.64697 5.482557,128.6738 4.97281,87.225992 5.159553,48.985803 5.977036,27.413142 6.359756,17.313843 6.4422,16.63619 7.602795,14.05002 8.275234,12.551642 9.162593,11.022261 9.574708,10.651394 11.752732,8.6913788 37.407075,5.5343129 64.788672,3.8566715 80.072688,2.9202361 134.32435,3.0665847 149.91831,4.0863163 c 25.02555,1.6364892 49.05564,4.7232083 51.09478,6.5632407 0.41212,0.371877 1.30629,1.917266 1.98706,3.434198 1.17499,2.618235 1.2624,3.31889 1.72423,13.820808 1.09775,24.962776 0.28793,150.303827 -1.03121,159.604907 -0.94494,6.66272 -4.7218,13.15023 -12.28888,21.10858 -9.08411,9.55383 -16.25349,15.11494 -36.18584,28.06847 -19.22118,12.49135 -26.14708,16.00566 -40.87642,20.74133 -7.91557,2.54496 -8.91107,2.78774 -10.19234,2.48574 z m 6.17876,-14.06122 c 11.21128,-3.24731 24.01303,-9.62268 37.30688,-18.5791 6.68181,-4.50171 9.20559,-6.4214 21.28594,-16.1909 9.51141,-7.69198 13.63997,-11.66308 17.5486,-16.87932 5.5542,-7.41233 5.43851,-6.85451 6.47126,-31.20278 2.45226,-57.81532 2.56573,-90.82164 0.43031,-125.177171 C 192.59673,25.359101 192.14205,22.258586 190.92783,21.159736 188.78181,19.21761 168.03037,15.41 152.18921,14.05172 c -2.77864,-0.238251 -10.39912,-0.657562 -16.93439,-0.931802 -6.53527,-0.27424 -15.89851,-0.687954 -20.80719,-0.919365 -5.44325,-0.256611 -12.40652,-0.255773 -17.849766,0.0021 -4.908682,0.232592 -14.345041,0.643687 -20.969689,0.913543 -17.89221,0.728844 -27.041157,1.631964 -39.90258,3.938906 -8.724688,1.564942 -15.043097,3.179225 -16.065632,4.104587 -1.211818,1.096694 -1.666663,4.185815 -2.453534,16.663364 -1.371573,21.749724 -1.820227,48.872208 -1.232826,74.529957 0.906807,39.61095 2.385087,70.96925 3.498744,74.21805 2.696343,7.86577 24.393816,28.01141 44.62981,41.43784 8.257831,5.47902 17.419561,10.55079 24.776428,13.71581 5.262123,2.26383 15.802165,5.75791 16.644165,5.51762 0.25172,-0.0718 2.41429,-0.69734 4.8057,-1.39 z"
       id="path230" />
    <path
       style="fill:#00ff00;stroke-width:0.457687"
       d="M 97.742078,244.69583 C 90.485719,242.25453 80.714292,237.74124 73.342849,233.42618 53.334851,221.71397 27.695457,199.93705 21.09864,189.05236 c -1.713944,-2.828 -1.998914,-4.61602 -2.729677,-17.12721 -2.807946,-48.07389 -3.012461,-109.011652 -0.4708,-140.280816 0.597218,-7.347368 1.041014,-9.397806 2.245114,-10.37291 1.994967,-1.615565 20.501653,-5.177961 33.889769,-6.523524 7.16877,-0.720491 28.719694,-1.843095 45.539777,-2.3722 8.744207,-0.275064 30.765097,0.480242 48.743577,1.671881 8.86357,0.587489 21.98013,2.338223 30.66498,4.093007 8.79203,1.77644 11.30238,2.56407 12.09883,3.796039 0.82978,1.283539 1.45426,6.199784 2.07611,16.344158 1.94972,31.806591 1.88755,65.827225 -0.21748,118.998415 -1.10487,27.90807 -1.38471,29.62248 -5.80141,35.54203 -5.05408,6.77381 -8.64116,10.17284 -22.34432,21.17294 -16.25124,13.04555 -27.34376,20.18742 -41.31224,26.59874 -4.98612,2.28855 -14.44448,5.63875 -17.35548,6.14741 -1.11737,0.19524 -3.32999,-0.34437 -8.383312,-2.04449 z"
       id="path235" />
    <path
       style="fill:#00ff00;stroke-width:0.457687"
       d="M 99.572823,244.97408 C 82.283067,239.2192 66.703845,230.23715 47.854282,215.15626 33.723514,203.85071 23.13059,193.03543 20.612302,187.34242 c -1.131859,-2.55875 -1.619047,-7.36872 -2.488727,-24.57099 -1.300816,-25.73012 -1.738122,-49.88528 -1.483188,-81.925829 0.237109,-29.800364 0.58261,-40.053823 1.734995,-51.489696 0.725035,-7.195017 1.01814,-7.734663 4.842629,-8.915971 15.660138,-4.837103 46.077789,-7.573218 83.677789,-7.526948 33.10277,0.04073 58.46563,2.175321 76.38865,6.429012 6.52487,1.548555 7.4448,2.02797 8.02364,4.181463 1.27863,4.75696 2.26187,21.400696 2.73744,46.33767 0.68477,35.906909 -1.24977,104.595339 -3.22256,114.421549 -1.61454,8.04181 -9.77659,16.72498 -31.95491,33.99509 -13.30527,10.36072 -27.22698,18.80852 -38.36145,23.27803 -5.70167,2.28872 -13.92946,4.97346 -15.19127,4.95694 -0.64111,-0.008 -3.22524,-0.70079 -5.742517,-1.53866 z"
       id="path237" />
    <path
       style="fill:#ff0000;stroke-width:0.457687"
       d="M 90.32265,45.930241 76.08794,22.016138 90.44904,21.787296 c 7.8986,-0.125864 20.82581,-0.125864 28.72712,0 l 14.36601,0.228842 -14.2358,23.914103 c -7.8297,13.152758 -14.35128,23.914105 -14.49241,23.914105 -0.14113,0 -6.66222,-10.761347 -14.49131,-23.914105 z"
       id="path193-9" />
    <path
       style="fill:#ff0000;stroke-width:0.457687"
       d="m 101.0356,234.206 c -3.11881,-2.96086 -3.55491,-3.21401 -7.20993,-4.18522 -2.13968,-0.56855 -3.94651,-1.07735 -4.01517,-1.13066 -0.0686,-0.0533 1.1671,-1.41703 2.74612,-3.03048 2.92724,-2.99108 5.16464,-6.65332 6.49761,-10.63551 1.2514,-3.73851 1.57449,-9.5098 1.11815,-19.97377 -0.66617,-15.27583 -1.64797,-19.06062 -6.4112,-24.71506 -3.11839,-3.70184 -6.39079,-8.3324 -7.63835,-10.80854 -1.32025,-2.62041 -1.87091,-5.06927 -2.50508,-11.14044 l -0.54771,-5.24344 -7.04642,10.04915 c -3.87553,5.52702 -7.09982,10.11538 -7.16507,10.19635 -0.0653,0.081 -2.41112,-0.17149 -5.21302,-0.56102 -3.72509,-0.51788 -6.19112,-1.171 -9.17488,-2.42991 -4.02537,-1.69838 -4.06932,-1.73411 -3.25181,-2.64277 0.4558,-0.50662 5.5169,-6.44851 11.24692,-13.20421 11.61831,-13.69799 10.95975,-12.34681 7.81976,-16.04409 L 68.77265,126.925 54.86779,137.58302 c -7.64768,5.86191 -14.13481,10.83657 -14.41583,11.05481 -0.57427,0.44596 -4.54324,-5.29223 -6.09359,-8.80994 -1.1852,-2.68915 -3.26353,-10.42245 -2.85792,-10.63413 0.16981,-0.0886 7.77436,-3.02608 16.89899,-6.5277 9.12463,-3.50161 16.59066,-6.57253 16.59118,-6.82426 5.3e-4,-0.25172 -0.55982,-1.74493 -1.24519,-3.31822 l -1.24612,-2.86054 h -2.03168 c -2.13671,0 -28.01304,1.65219 -31.74782,2.02708 l -2.174,0.21822 v -5.71881 c 0,-4.83753 0.92826,-12.239796 1.62348,-12.945856 0.0929,-0.0943 9.90904,0.57961 21.81373,1.49764 11.90468,0.91804 21.85927,1.66458 22.12131,1.65899 0.28327,-0.006 0.50324,1.391209 0.54255,3.44627 0.0534,2.794016 0.28771,3.834556 1.22239,5.429456 1.42558,2.43257 3.68661,4.45643 6.81482,6.09997 2.08466,1.09528 2.9061,1.2541 6.50513,1.25779 3.65026,0.004 4.35729,-0.13577 6.21088,-1.22549 2.26966,-1.33431 3.92306,-3.43021 5.52897,-7.00865 0.7943,-1.76993 1.03247,-3.16989 1.05117,-6.178757 0.031,-4.991689 -0.78014,-7.723349 -3.06395,-10.317888 -2.20195,-2.501556 -3.91748,-3.445095 -6.94134,-3.817736 l -2.2842,-0.281493 2.57137,-2.63297 c 2.93051,-3.000711 6.57973,-4.930542 11.53039,-6.097661 3.1621,-0.745469 3.35903,-0.739362 6.82547,0.211643 4.97736,1.36552 7.8292,2.929816 10.79984,5.923952 l 2.55555,2.575766 -2.30613,0.291126 c -3.05073,0.385128 -4.7605,1.324907 -6.96326,3.827373 -2.28194,2.592419 -3.09372,5.322049 -3.0685,10.317888 0.0153,3.024277 0.24929,4.399767 1.05118,6.178757 1.61632,3.58579 3.26653,5.67591 5.53351,7.00865 1.85359,1.08972 2.56062,1.22922 6.21088,1.22549 3.59903,-0.004 4.42047,-0.16251 6.50514,-1.25779 3.14077,-1.65015 5.39021,-3.66907 6.8352,-6.13475 0.95929,-1.63692 1.18627,-2.63987 1.22874,-5.429456 0.0417,-2.7418 0.19095,-3.42114 0.75101,-3.41909 0.38441,0.001 10.3394,-0.74189 22.12218,-1.65177 11.78279,-0.90987 21.49599,-1.58039 21.5849,-1.49003 0.68883,0.70007 1.61625,8.124386 1.61625,12.938626 v 5.71881 l -2.174,-0.21822 c -3.76256,-0.37768 -29.61889,-2.02708 -31.7769,-2.02708 h -2.06077 l -1.29076,3.20631 c -0.70991,1.76347 -1.20607,3.28126 -1.10256,3.37286 0.1419,0.12558 19.36603,7.56125 32.77113,12.67549 l 1.00258,0.3825 -1.12743,4.21284 c -1.42679,5.33146 -2.40773,7.54325 -5.3084,11.96922 -1.55955,2.37963 -2.49679,3.41921 -2.83906,3.14906 -0.28102,-0.22181 -6.76582,-5.19922 -14.41067,-11.06092 l -13.89972,-10.65764 -1.51802,1.7875 c -3.14839,3.70731 -3.80864,2.35194 7.81937,16.05161 5.73345,6.75493 10.80688,12.70894 11.27428,13.23112 0.84662,0.94585 0.83414,0.95585 -3.30754,2.64977 -2.94327,1.20377 -5.63041,1.90511 -9.2015,2.40158 -2.77427,0.3857 -5.09752,0.63501 -5.16277,0.55404 -0.0653,-0.081 -3.28954,-4.66933 -7.16508,-10.19635 l -7.04642,-10.04915 -0.54771,5.24344 c -0.63417,6.07117 -1.18483,8.52003 -2.50508,11.14044 -1.24756,2.47614 -4.51996,7.1067 -7.63835,10.80854 -4.76323,5.65444 -5.74502,9.43923 -6.4112,24.71506 -0.45633,10.46397 -0.13325,16.23526 1.11815,19.97377 1.35084,4.03556 3.58597,7.67529 6.5211,10.61909 1.59195,1.59664 2.8277,2.95717 2.74612,3.02341 -0.0816,0.0662 -1.89897,0.58289 -4.03865,1.14814 -3.67798,0.97164 -4.0688,1.20008 -7.15978,4.18522 -1.79819,1.73663 -3.49674,3.1575 -3.77453,3.1575 -0.2778,0 -1.99891,-1.41817 -3.8247,-3.15149 z m 4.23283,-77.05802 c 0.001,-1.11952 6.7553,-17.28151 8.2584,-19.76163 0.84113,-1.38784 2.84073,-4.08818 4.44358,-6.00074 1.60285,-1.91257 2.85028,-3.65235 2.77208,-3.86618 -0.19376,-0.52984 -15.60279,-16.71217 -15.91355,-16.71217 -0.31136,0 -15.7578,16.18332 -15.95116,16.71211 -0.0782,0.21387 1.16924,1.95367 2.77208,3.86624 1.60285,1.91256 3.60246,4.6129 4.44358,6.00074 1.50311,2.48012 8.25722,18.64211 8.2584,19.76163 2.7e-4,0.31466 0.20657,0.57211 0.4583,0.57211 0.25172,0 0.45796,-0.25745 0.45829,-0.57211 z"
       id="path195-8" />
    <path
       style="fill:#ff0000;stroke-width:0.457687"
       d="m 156.74266,85.328532 c -0.43984,-1.342072 -1.49176,-3.82521 -2.33759,-5.518089 -0.84584,-1.692875 -1.53788,-3.242839 -1.53788,-3.444367 0,-0.716563 7.79731,-5.183552 7.99706,-4.581416 0.10526,0.317328 0.38542,1.325576 0.62257,2.24055 l 0.43119,1.663591 -2.71357,1.170845 -2.71357,1.170839 1.60512,3.187341 1.60512,3.187334 5.85119,-1.729848 c 3.21815,-0.951415 6.7265,-1.994654 7.79635,-2.318303 1.06984,-0.323654 1.94516,-0.84849 1.94516,-1.166304 0,-1.381737 -3.31703,-8.264345 -5.09132,-10.56417 -2.56682,-3.327064 -6.58605,-6.754013 -7.36121,-6.276448 -0.32534,0.200435 -3.44166,2.365129 -6.92515,4.810429 l -6.33362,4.446 -2.9969,-3.176871 c -1.6483,-1.747279 -3.681,-3.777519 -4.51713,-4.511648 l -1.52022,-1.334775 2.52941,-3.463576 c 1.39119,-1.904966 2.66974,-3.461023 2.84125,-3.457906 0.1715,0.0031 0.79315,0.748422 1.38144,1.656239 l 1.06962,1.650574 -1.73677,1.778614 -1.73677,1.778614 2.25184,2.286224 c 1.23852,1.257422 2.3933,2.286223 2.56617,2.286223 0.17288,0 3.04382,-1.796365 6.37987,-3.991925 l 6.06555,-3.99193 -2.93002,-2.682388 c -4.22038,-3.863697 -12.90844,-10.827385 -13.52038,-10.8369 -0.2867,-0.0045 -2.81973,2.970742 -5.62896,6.611559 l -5.10768,6.619669 -2.21312,-1.589963 c -1.21721,-0.874483 -3.98762,-2.421528 -6.15646,-3.437882 -2.16884,-1.016352 -3.94335,-1.939872 -3.94335,-2.052265 0,-0.112395 0.96019,-2.273107 2.13375,-4.801587 l 2.13376,-4.597233 1.52191,1.475095 1.52192,1.475097 -1.1384,1.942525 c -0.62612,1.068388 -1.13839,2.119956 -1.13839,2.336819 0,0.21686 1.43721,1.170567 3.1938,2.119342 l 3.19381,1.725048 3.2138,-4.876209 c 1.76759,-2.681915 3.2138,-5.11682 3.2138,-5.410899 0,-0.294079 -2.25571,-1.936829 -5.01269,-3.650554 l -5.0127,-3.115868 0.98472,-2.026851 c 0.5416,-1.114767 1.12095,-2.026849 1.28744,-2.026849 0.46125,0 20.05238,13.164677 22.39767,15.050593 1.13195,0.910224 3.75584,3.161593 5.83088,5.003043 2.37175,2.10475 3.98698,3.224292 4.34954,3.014726 0.3172,-0.183349 3.09177,-2.163223 6.16572,-4.399717 l 5.58899,-4.066352 -1.33252,-2.152179 c -0.73289,-1.183695 -2.97636,-3.780972 -4.9855,-5.771721 l -3.65297,-3.619548 -2.83124,2.452743 -2.83123,2.452741 1.09171,0.937961 c 0.60044,0.515879 1.64083,1.34988 2.31198,1.853335 l 1.22026,0.915371 -1.009,1.945327 -1.00899,1.945326 -3.95991,-4.004914 -3.95992,-4.004913 4.71613,-5.008229 c 5.52508,-5.867294 4.36946,-5.929064 11.29733,0.60384 2.9,2.734673 5.51183,5.775505 7.61676,8.86786 l 3.2034,4.706098 -1.89569,1.345698 c -1.04263,0.740132 -4.21427,3.053511 -7.04808,5.140841 l -5.15239,3.795143 2.50227,3.383576 c 1.37625,1.860968 3.24222,4.72975 4.1466,6.375072 2.19337,3.990348 6.20221,13.736233 5.80362,14.109184 -0.17433,0.163124 -5.15699,1.157081 -11.07259,2.208792 -5.91559,1.051719 -11.19691,2.016316 -11.73625,2.143551 -0.84449,0.199218 -1.09166,-0.107437 -1.78035,-2.208795 z"
       id="path199-6" />
    <path
       style="fill:#ff0000;stroke-width:0.457687"
       d="M 39.58984,85.47145 C 29.51893,83.60079 28.16413,83.248701 28.28486,82.533448 c 0.23233,-1.376432 4.15139,-10.445303 5.84668,-13.52954 0.88265,-1.605783 2.74476,-4.461008 4.13798,-6.344944 1.39324,-1.883937 2.46624,-3.47028 2.38443,-3.525205 -0.0818,-0.05492 -3.1994,-2.325711 -6.92799,-5.046194 -4.46574,-3.258325 -6.69657,-5.161833 -6.53695,-5.577811 0.8981,-2.340412 5.71865,-8.463095 9.82848,-12.483394 7.3529,-7.192737 6.1818,-7.076204 11.74474,-1.168688 l 4.71615,5.008229 -3.95991,4.004913 -3.95992,4.004914 -1.00901,-1.945326 -1.00899,-1.945327 1.22026,-0.915371 c 0.67114,-0.503455 1.71154,-1.337456 2.31198,-1.853335 l 1.09172,-0.937961 -2.83125,-2.452741 -2.83123,-2.452743 -3.65297,3.619548 c -2.00914,1.990749 -4.25193,4.586925 -4.98398,5.769276 l -1.33101,2.149732 5.58747,4.053713 c 3.07311,2.229541 5.85129,4.213161 6.17373,4.408043 0.38233,0.231076 1.8152,-0.738526 4.11917,-2.787348 1.94313,-1.727925 4.56274,-3.978844 5.82136,-5.002043 2.45827,-1.99843 22.12487,-15.269766 22.62804,-15.269766 0.1665,0 0.74585,0.912082 1.28744,2.026849 l 0.98472,2.026851 -5.01269,3.115868 c -2.75698,1.713725 -5.0127,3.335494 -5.0127,3.603929 0,0.268436 1.44311,2.705018 3.2069,5.414627 l 3.2069,4.926562 3.20071,-1.728776 c 1.76039,-0.950826 3.20071,-1.90621 3.20071,-2.12307 0,-0.216863 -0.51228,-1.268431 -1.1384,-2.336819 l -1.1384,-1.942525 1.51965,-1.472899 1.51965,-1.472898 2.13602,4.541139 c 1.17482,2.497624 2.13603,4.657349 2.13603,4.799385 0,0.142039 -1.77451,1.089814 -3.94336,2.106166 -2.16884,1.016354 -4.93199,2.558187 -6.14033,3.426296 l -2.197,1.578382 -5.13343,-6.608085 c -2.82338,-3.634446 -5.36367,-6.604436 -5.64508,-6.599976 -0.59293,0.0094 -9.21987,6.941617 -13.50991,10.855952 l -2.92914,2.672639 5.71746,3.745073 c 3.14459,2.059792 6.01138,3.857877 6.37066,3.99574 0.39258,0.150649 1.55504,-0.664921 2.9134,-2.04402 l 2.26019,-2.294688 -1.73677,-1.778614 -1.73677,-1.778614 1.06962,-1.650574 c 0.58829,-0.907817 1.20994,-1.653125 1.38144,-1.656239 0.1715,-0.0031 1.45006,1.55294 2.84124,3.457906 l 2.52942,3.463576 -1.52023,1.334775 c -0.83612,0.734129 -2.86971,2.765303 -4.51908,4.513723 l -2.99886,3.178942 -5.67724,-4.022479 c -9.04208,-6.406549 -7.69818,-5.964465 -10.5987,-3.486465 -3.52404,3.010681 -6.03195,6.450605 -7.85596,10.775495 -0.86651,2.054609 -1.57549,4.00114 -1.57549,4.325625 0,0.326441 1.17557,0.923904 2.63171,1.337525 1.44743,0.411149 4.95519,1.450086 7.79505,2.308748 l 5.16334,1.561198 1.60642,-3.189912 1.60641,-3.189912 -2.71356,-1.170839 -2.71357,-1.170845 0.43119,-1.663591 c 0.23715,-0.914974 0.51732,-1.923222 0.62257,-2.24055 0.19976,-0.602136 7.99705,3.864853 7.99705,4.581416 0,0.201528 -0.69204,1.751492 -1.53786,3.444367 -0.84585,1.692879 -1.89219,4.159242 -2.32521,5.480812 -0.43304,1.32157 -1.02822,2.380962 -1.32268,2.354205 -0.29443,-0.02675 -5.68428,-1.005055 -11.97748,-2.17401 z"
       id="path201-5" />
    <path
       style="fill:#ff0000;stroke-width:0.457687"
       d="m 134.68978,214.26306 c -5.8393,-1.31647 -10.24902,-4.44763 -12.00174,-8.52194 -2.29989,-5.34624 -2.90704,-13.14001 -1.61948,-20.7887 1.36665,-8.11854 1.09595,-8.1862 3.84084,0.95996 1.35249,4.50657 2.93458,9.14598 3.51576,10.3098 0.93951,1.88136 4.80781,5.89347 5.68223,5.89347 0.18378,0 0.47566,-1.62225 0.64862,-3.60501 0.61256,-7.02222 2.15531,-10.61232 6.54055,-15.22037 1.34909,-1.41763 3.73204,-3.25935 5.29543,-4.0927 3.84193,-2.04791 8.82137,-2.39267 12.81305,-0.88716 6.53785,2.46583 12.48048,11.32581 10.86985,16.20606 -1.7727,5.37134 -7.8479,5.08266 -10.54241,-0.50095 -1.99552,-4.13514 -4.46245,-6.08814 -7.69025,-6.08814 -2.68021,0 -4.63477,1.56134 -6.39804,5.11088 -1.23136,2.47879 -3.93377,11.32102 -3.57549,11.69895 0.0544,0.0573 2.33921,-0.0926 5.07741,-0.33313 2.7382,-0.24057 5.07106,-0.34489 5.18413,-0.23182 0.11306,0.11306 -0.0488,1.11429 -0.35982,2.22495 -0.69165,2.47036 -3.92424,5.8075 -6.8839,7.10656 -2.82637,1.24056 -6.93204,1.5404 -10.39674,0.75929 z"
       id="path203-7" />
    <path
       style="fill:#ff0000;stroke-width:0.457687"
       d="m 67.4372,214.45422 c -4.29582,-0.84989 -8.75632,-4.53942 -9.80214,-8.10792 -0.31403,-1.07147 -0.47387,-2.04521 -0.3552,-2.16387 0.11867,-0.11866 2.4561,-0.0189 5.1943,0.22165 2.7382,0.24058 5.02304,0.39048 5.07741,0.33313 0.0544,-0.0574 -0.39235,-2.06089 -0.99271,-4.4523 -2.08674,-8.312 -5.02682,-12.35753 -8.98081,-12.35753 -3.22782,0 -5.69474,1.953 -7.69025,6.08814 -2.69452,5.58361 -8.76972,5.87229 -10.54243,0.50095 -1.61062,-4.88025 4.33202,-13.74023 10.86985,-16.20606 2.15784,-0.81385 3.32478,-0.96164 6.30902,-0.79899 4.86903,0.26536 7.35903,1.48206 11.55633,5.64681 4.43994,4.40551 5.88158,7.46959 6.61893,14.06804 0.30051,2.68916 0.68164,4.88938 0.84695,4.88938 0.84678,0 4.72757,-4.04898 5.64866,-5.89347 0.58118,-1.16382 2.15302,-5.76924 3.49297,-10.23426 1.33994,-4.46503 2.49949,-8.055 2.57677,-7.97772 0.0773,0.0773 0.55528,2.56668 1.06223,5.53201 1.52971,8.94783 1.0666,16.47712 -1.3605,22.11906 -1.82458,4.24137 -6.20833,7.31887 -12.24869,8.59889 -3.40886,0.72238 -4.46766,0.7506 -7.28069,0.19406 z"
       id="path205-6" />
  </g>
  <g
     inkscape:groupmode="layer"
     id="layer2"
     inkscape:label="Layer 2" />
</svg>
